<?xml version="1.0" encoding="utf-8"?>
<!-- Generated by IcoMoon.io -->
<!DOCTYPE svg PUBLIC "-//W3C//DTD SVG 1.1//EN" "http://www.w3.org/Graphics/SVG/1.1/DTD/svg11.dtd">
<svg version="1.1" xmlns="http://www.w3.org/2000/svg" xmlns:xlink="http://www.w3.org/1999/xlink" width="32" height="32" viewBox="0 0 32 32">
<path fill="#444444" d="M25.682 14.808c0 0-1.376 5.066-4.178 7.167-1.413 1.060-2.909 1.157-4.052 0.997v2.707h-2.329v-2.81c-1.182 0.272-2.965 0.351-4.627-0.895-2.802-2.101-4.178-7.167-4.178-7.167s4.046-0.085 6.928 1.326c0.017 0.038 0.027 0.082 0.045 0.12 0.022-0.020 0.047-0.038 0.070-0.060-0.040-0.020-0.075-0.043-0.114-0.060-0.277-0.618-0.467-1.334-0.467-2.164 0-3.511 3.221-7.648 3.221-7.648s3.218 4.139 3.218 7.648c0 0.83-0.19 1.546-0.467 2.164-0.038 0.017-0.075 0.040-0.115 0.060 0.022 0.022 0.047 0.040 0.070 0.062 0.017-0.040 0.027-0.085 0.045-0.122 2.885-1.41 6.931-1.325 6.931-1.325z"></path>
</svg>
