<?xml version="1.0" encoding="utf-8"?>
<!-- Generated by IcoMoon.io -->
<!DOCTYPE svg PUBLIC "-//W3C//DTD SVG 1.1//EN" "http://www.w3.org/Graphics/SVG/1.1/DTD/svg11.dtd">
<svg version="1.1" xmlns="http://www.w3.org/2000/svg" xmlns:xlink="http://www.w3.org/1999/xlink" width="32" height="32" viewBox="0 0 32 32">
<path fill="rgb(0, 0, 0)" d="M13.202 12.152c0.038-0.015 0.060-0.025 0.060-0.025s-0.022 0.011-0.060 0.025z"></path>
<path fill="rgb(0, 0, 0)" d="M15.022 12.152c0.030-0.015 0.047-0.025 0.047-0.025s-0.017 0.011-0.047 0.025z"></path>
<path fill="rgb(73, 140, 232)" d="M11.552 19.056c-2.607-4.862 1.139-6.681 1.65-6.903-0.584 0.252-5.569 2.508-4.689 6.564 1.204 5.547-6.068 6.963-6.068 6.963h7.297c0 0 4.552-1.517 1.81-6.624z"></path>
<path fill="rgb(73, 140, 232)" d="M16.956 19.056c-5.133-4.862-2.331-6.681-1.935-6.903-0.454 0.252-4.268 2.508-1.281 6.564 4.088 5.547-2.448 6.963-2.448 6.963h7.297c0.001 0 3.765-1.517-1.633-6.624z"></path>
<path fill="rgb(234, 54, 18)" d="M29.422 16.624l-5.385-9.83c-0.155-0.285-0.456-0.467-0.785-0.467-0.332 0-0.631 0.182-0.785 0.467l-5.387 9.83c-0.152 0.272-0.147 0.608 0.016 0.88 0.162 0.272 0.456 0.438 0.77 0.438h10.772c0.317 0 0.611-0.167 0.77-0.438 0.161-0.271 0.168-0.608 0.014-0.88zM24.15 15.926c0 0.125-0.1 0.229-0.225 0.229h-1.346c-0.127 0-0.225-0.105-0.225-0.229v-1.326c0-0.127 0.098-0.229 0.225-0.229h1.346c0.125 0 0.225 0.103 0.225 0.229v1.326zM24.134 13.316c-0.008 0.090-0.112 0.16-0.239 0.16h-1.296c-0.132 0-0.239-0.070-0.239-0.16l-0.117-3.191c0-0.043 0.020-0.112 0.070-0.147 0.043-0.035 0.105-0.077 0.167-0.077h1.543c0.062 0 0.127 0.043 0.169 0.077 0.047 0.035 0.070 0.092 0.070 0.132l-0.128 3.207z"></path>
</svg>
