<?xml version="1.0" encoding="utf-8"?>
<!-- Generated by IcoMoon.io -->
<!DOCTYPE svg PUBLIC "-//W3C//DTD SVG 1.1//EN" "http://www.w3.org/Graphics/SVG/1.1/DTD/svg11.dtd">
<svg version="1.1" xmlns="http://www.w3.org/2000/svg" xmlns:xlink="http://www.w3.org/1999/xlink" width="32" height="32" viewBox="0 0 32 32">
<path fill="rgb(73, 140, 232)" d="M6.587 14.947c0.718 0 1.426 0.15 2.107 0.449 0.166 0.073 0.359 0.062 0.519-0.025 0.157-0.087 0.264-0.242 0.285-0.416 0.286-2.511 2.465-4.403 5.069-4.403 2.433 0 4.547 1.668 5.026 3.966 0.055 0.261 0.289 0.441 0.576 0.441 0.043-0.003 0.082-0.008 0.098-0.013 2.78 0 5.128 2.329 5.128 5.080 0 2.755-2.348 5.083-5.128 5.083h-13.679c-2.78 0-5.131-2.329-5.131-5.083 0-2.753 2.351-5.080 5.131-5.080z"></path>
<path fill="rgb(184, 214, 255)" d="M21.802 7.255c1.758 0 3.283 1.204 3.63 2.862 0.055 0.259 0.348 0.432 0.643 0.434 2.044 0 3.705 1.603 3.705 3.57 0 1.645-1.199 3.057-2.837 3.438-0.945-2.062-3.004-3.572-5.378-3.702-0.497-1.702-1.745-3.061-3.343-3.799 0.369-1.62 1.835-2.802 3.58-2.802z"></path>
</svg>
