<?xml version="1.0" encoding="utf-8"?>
<!-- Generated by IcoMoon.io -->
<!DOCTYPE svg PUBLIC "-//W3C//DTD SVG 1.1//EN" "http://www.w3.org/Graphics/SVG/1.1/DTD/svg11.dtd">
<svg version="1.1" xmlns="http://www.w3.org/2000/svg" xmlns:xlink="http://www.w3.org/1999/xlink" width="32" height="32" viewBox="0 0 32 32">
<path fill="rgb(234, 54, 18)" d="M15.52 29.549c-6.92 0-7.262-7.444-7.262-11.144 0-2.329 0.865-5.908 1.794-7.616 0.367-0.259 0.626 0 0.519 0.187-1.182 2.732 0.636 8.332 2.623 8.88-0.588-1.406-1.91-7.489-1.065-10.633 1.71-4.61 3.777-6.115 5.435-7.556 0.073-0.107 0.256-0.187 0.367-0.187 0.107 0 0.187 0.109 0.144 0.259-0.109 0.484-0.222-0.008-0.259 0.473-0.949 3.444-2.011 10.229 0.12 13.787 3.096 0.967 1.077-3.134 1.226-4.243 0-0.259 0.222-0.441 0.626-0.144 1.807 1.326 2.987 8.271 2.987 10.67 0 4.017-3.238 7.267-7.255 7.267z"></path>
</svg>
