<?xml version="1.0" encoding="utf-8"?>
<!-- Generated by IcoMoon.io -->
<!DOCTYPE svg PUBLIC "-//W3C//DTD SVG 1.1//EN" "http://www.w3.org/Graphics/SVG/1.1/DTD/svg11.dtd">
<svg version="1.1" xmlns="http://www.w3.org/2000/svg" xmlns:xlink="http://www.w3.org/1999/xlink" width="32" height="32" viewBox="0 0 32 32">
<path fill="rgb(73, 140, 232)" d="M19.018 22.763c-0.481 0-0.873 0.222-0.873 0.497l-1.191 4.836c0 0.274 0.389 0.497 0.872 0.497 0.481 0 0.87-0.222 0.87-0.497l1.194-4.836c0-0.275-0.391-0.497-0.872-0.497z"></path>
<path fill="rgb(73, 140, 232)" d="M14.178 22.763c-0.484 0-0.873 0.222-0.873 0.497l-1.191 4.836c0 0.274 0.389 0.497 0.87 0.497 0.484 0 0.872-0.222 0.872-0.497l1.195-4.836c0-0.275-0.392-0.497-0.873-0.497z"></path>
<path fill="rgb(73, 140, 232)" d="M22.553 8.625c-0.713-2.481-3.047-4.24-5.711-4.24-2.785 0-5.148 1.897-5.759 4.509-0.586-0.185-1.187-0.279-1.797-0.279-3.395 0-5.933 3.42-5.933 6.477s2.538 6.477 5.933 6.477h12.951c3.395 0 5.936-3.42 5.936-6.477 0-2.963-2.384-6.263-5.62-6.467z"></path>
</svg>
