<?xml version="1.0" encoding="utf-8"?>
<!-- Generated by IcoMoon.io -->
<!DOCTYPE svg PUBLIC "-//W3C//DTD SVG 1.1//EN" "http://www.w3.org/Graphics/SVG/1.1/DTD/svg11.dtd">
<svg version="1.1" xmlns="http://www.w3.org/2000/svg" xmlns:xlink="http://www.w3.org/1999/xlink" width="32" height="32" viewBox="0 0 32 32">
<path fill="rgb(73, 140, 232)" d="M13.619 17.176c-3.478-6.251 1.519-8.588 2.201-8.872-0.78 0.321-7.429 3.224-6.255 8.436 1.606 7.135-8.088 8.953-8.088 8.953h9.728c0.001 0 6.069-1.947 2.414-8.516z"></path>
<path fill="rgb(73, 140, 232)" d="M20.826 17.176c-6.846-6.251-3.109-8.588-2.58-8.872-0.606 0.321-5.689 3.224-1.707 8.436 5.447 7.135-3.266 8.953-3.266 8.953h9.728c-0.001 0 5.017-1.947-2.175-8.516z"></path>
<path fill="rgb(73, 140, 232)" d="M23.858 6.321c-0.484 0-0.873 0.225-0.873 0.498l-1.194 4.834c0 0.277 0.391 0.498 0.872 0.498 0.484 0 0.872-0.222 0.872-0.498l1.191-4.834c0.001-0.274-0.387-0.498-0.868-0.498z"></path>
<path fill="rgb(73, 140, 232)" d="M28.697 6.321c-0.484 0-0.873 0.225-0.873 0.498l-1.191 4.834c0 0.277 0.389 0.498 0.87 0.498 0.484 0 0.872-0.222 0.872-0.498l1.194-4.834c0.001-0.274-0.391-0.498-0.872-0.498z"></path>
</svg>
