<?xml version="1.0" encoding="utf-8"?>
<!-- Generated by IcoMoon.io -->
<!DOCTYPE svg PUBLIC "-//W3C//DTD SVG 1.1//EN" "http://www.w3.org/Graphics/SVG/1.1/DTD/svg11.dtd">
<svg version="1.1" xmlns="http://www.w3.org/2000/svg" xmlns:xlink="http://www.w3.org/1999/xlink" width="32" height="32" viewBox="0 0 32 32">
<path fill="rgb(255, 156, 0)" d="M26.424 21.106c-0.134-0.134-0.351-0.134-0.486 0s-0.134 0.351 0 0.486l1.943 1.944c0.067 0.068 0.155 0.1 0.242 0.1 0.090 0 0.177-0.032 0.244-0.1 0.132-0.134 0.132-0.351 0-0.486l-1.943-1.944z"></path>
<path fill="rgb(255, 156, 0)" d="M15.742 10.896c0.134-0.134 0.134-0.351 0-0.486l-1.943-1.944c-0.132-0.133-0.351-0.133-0.484 0-0.134 0.134-0.134 0.354 0 0.486l1.942 1.944c0.065 0.068 0.155 0.103 0.242 0.103s0.175-0.035 0.243-0.103z"></path>
<path fill="rgb(255, 156, 0)" d="M20.496 8.783c0.192 0 0.344-0.152 0.344-0.345v-2.749c0-0.19-0.152-0.345-0.344-0.345-0.19 0-0.342 0.155-0.342 0.345v2.75c0 0.192 0.152 0.344 0.342 0.344z"></path>
<path fill="rgb(255, 156, 0)" d="M20.725 10.503c-2.862 0-5.196 2.212-5.442 5.016 0.693 0.653 1.196 1.498 1.463 2.438 0.075-0.003 0.144-0.022 0.222-0.022 2.196 0 4.031 1.473 4.623 3.48 2.615-0.419 4.629-2.677 4.629-5.412 0-3.034-2.466-5.499-5.495-5.499z"></path>
<path fill="rgb(255, 156, 0)" d="M26.18 10.999c0.090 0 0.177-0.035 0.244-0.103l1.942-1.944c0.132-0.132 0.132-0.351 0-0.486-0.134-0.133-0.351-0.133-0.486 0l-1.943 1.944c-0.134 0.134-0.134 0.351 0 0.486 0.068 0.068 0.155 0.103 0.243 0.103z"></path>
<path fill="rgb(255, 156, 0)" d="M31.139 16.003h-2.745c-0.192 0-0.344 0.152-0.344 0.344 0 0.19 0.152 0.342 0.344 0.342h2.745c0.19 0 0.344-0.152 0.344-0.342 0-0.192-0.155-0.344-0.344-0.344z"></path>
<path fill="rgb(184, 214, 255)" d="M4.662 18.538c0.581 0 1.155 0.12 1.705 0.356 0.134 0.057 0.289 0.052 0.416-0.017 0.13-0.070 0.215-0.195 0.229-0.334 0.234-2.004 1.995-3.515 4.099-3.515 1.965 0 3.672 1.331 4.061 3.166 0.043 0.209 0.232 0.354 0.464 0.351 0.035 0 0.067-0.005 0.079-0.008 2.246 0 4.143 1.857 4.143 4.056s-1.897 4.058-4.143 4.058h-11.054c-2.246 0-4.143-1.86-4.143-4.058s1.897-4.055 4.143-4.055z"></path>
</svg>
