<?xml version="1.0" encoding="utf-8"?>
<!-- Generated by IcoMoon.io -->
<!DOCTYPE svg PUBLIC "-//W3C//DTD SVG 1.1//EN" "http://www.w3.org/Graphics/SVG/1.1/DTD/svg11.dtd">
<svg version="1.1" xmlns="http://www.w3.org/2000/svg" xmlns:xlink="http://www.w3.org/1999/xlink" width="32" height="32" viewBox="0 0 32 32">
<path fill="rgb(73, 140, 232)" d="M18.838 24.469c-0.13-0.232-0.416-0.312-0.641-0.177l-1.712 1.022v-2.054c0-0.267-0.217-0.484-0.484-0.484-0.269 0-0.484 0.217-0.484 0.484v2.054l-1.715-1.022c-0.225-0.134-0.511-0.055-0.641 0.177-0.127 0.232-0.052 0.528 0.172 0.661l1.731 1.035-1.731 1.032c-0.225 0.132-0.299 0.429-0.172 0.661 0.13 0.232 0.416 0.312 0.641 0.177l1.715-1.022v2.054c0 0.267 0.215 0.484 0.484 0.484 0.267 0 0.484-0.217 0.484-0.484v-2.054l1.712 1.022c0.225 0.134 0.511 0.055 0.641-0.177s0.052-0.528-0.172-0.661l-1.731-1.032 1.731-1.035c0.225-0.133 0.302-0.43 0.172-0.661z"></path>
<path fill="rgb(73, 140, 232)" d="M22.553 8.626c-0.713-2.483-3.047-4.24-5.711-4.24-2.785 0-5.151 1.897-5.759 4.51-0.586-0.187-1.187-0.279-1.797-0.279-3.395 0-5.933 3.418-5.933 6.477 0 3.057 2.538 6.474 5.933 6.474h12.951c3.395 0 5.936-3.418 5.936-6.474 0-2.964-2.384-6.264-5.62-6.468z"></path>
</svg>
