<?xml version="1.0" encoding="utf-8"?>
<!-- Generated by IcoMoon.io -->
<!DOCTYPE svg PUBLIC "-//W3C//DTD SVG 1.1//EN" "http://www.w3.org/Graphics/SVG/1.1/DTD/svg11.dtd">
<svg version="1.1" xmlns="http://www.w3.org/2000/svg" xmlns:xlink="http://www.w3.org/1999/xlink" width="32" height="32" viewBox="0 0 32 32">
<path fill="rgb(125, 177, 248)" d="M11.425 15.914c0.718 0 1.429 0.152 2.109 0.449 0.167 0.073 0.356 0.062 0.519-0.025 0.157-0.087 0.261-0.242 0.282-0.416 0.289-2.511 2.465-4.403 5.071-4.403 2.433 0 4.547 1.668 5.026 3.966 0.055 0.261 0.289 0.441 0.576 0.441 0.040-0.003 0.079-0.008 0.098-0.013 2.78 0 5.128 2.329 5.128 5.080 0 2.755-2.348 5.083-5.128 5.083h-13.68c-2.78 0-5.128-2.329-5.128-5.083-0.001-2.752 2.348-5.080 5.128-5.080z"></path>
<path fill="rgb(255, 156, 0)" d="M2.45 18.801c0.845 0.743 1.86 1.286 2.965 1.636-0.020-0.19-0.062-0.372-0.062-0.566 0-0.797 0.177-1.56 0.494-2.253-1.038 0.573-2.18 0.982-3.396 1.184z"></path>
<path fill="rgb(255, 156, 0)" d="M10.669 5.351c0.349 1.027 0.543 2.122 0.543 3.264 0 2.179-0.69 4.196-1.865 5.861 0.714-0.26 1.485-0.412 2.297-0.412 0.648 0 1.264 0.109 1.85 0.282 0.451-1.242 1.264-2.308 2.336-3.047-0.553-2.749-2.529-4.995-5.16-5.948z"></path>
</svg>
