<?xml version="1.0" encoding="utf-8"?>
<!-- Generated by IcoMoon.io -->
<!DOCTYPE svg PUBLIC "-//W3C//DTD SVG 1.1//EN" "http://www.w3.org/Graphics/SVG/1.1/DTD/svg11.dtd">
<svg version="1.1" xmlns="http://www.w3.org/2000/svg" xmlns:xlink="http://www.w3.org/1999/xlink" width="32" height="32" viewBox="0 0 32 32">
<path fill="rgb(73, 140, 232)" d="M15.555 18.129c-3.478-6.25 1.519-8.588 2.201-8.872-0.78 0.321-7.429 3.224-6.255 8.436 1.606 7.135-8.088 8.955-8.088 8.955h9.728c0.001 0 6.069-1.946 2.414-8.518z"></path>
<path fill="rgb(73, 140, 232)" d="M22.762 18.129c-6.846-6.25-3.109-8.588-2.58-8.872-0.606 0.321-5.691 3.224-1.707 8.436 5.447 7.135-3.266 8.955-3.266 8.955h9.728c-0.001 0 5.017-1.946-2.175-8.518z"></path>
<path fill="rgb(73, 140, 232)" d="M28.343 10.743l-1.73-1.035 1.73-1.032c0.225-0.132 0.302-0.429 0.172-0.661s-0.414-0.312-0.638-0.177l-1.715 1.022v-2.054c0-0.269-0.217-0.484-0.484-0.484s-0.484 0.214-0.484 0.484v2.054l-1.715-1.022c-0.225-0.134-0.508-0.055-0.638 0.177s-0.052 0.528 0.169 0.661l1.731 1.032-1.731 1.035c-0.222 0.132-0.299 0.429-0.169 0.661s0.414 0.309 0.638 0.177l1.715-1.025v2.057c0 0.267 0.217 0.484 0.484 0.484s0.484-0.217 0.484-0.484v-2.057l1.715 1.025c0.225 0.133 0.508 0.055 0.638-0.177s0.052-0.529-0.172-0.661z"></path>
</svg>
