<?xml version="1.0" encoding="utf-8"?>
<!-- Generated by IcoMoon.io -->
<!DOCTYPE svg PUBLIC "-//W3C//DTD SVG 1.1//EN" "http://www.w3.org/Graphics/SVG/1.1/DTD/svg11.dtd">
<svg version="1.1" xmlns="http://www.w3.org/2000/svg" xmlns:xlink="http://www.w3.org/1999/xlink" width="32" height="32" viewBox="0 0 32 32">
<path fill="rgb(255, 156, 0)" d="M20.042 5.881c-2.092 0-3.969 1.272-4.729 3.129 2.166 0.381 3.963 1.932 4.569 4.011 1.339 0.073 2.558 0.638 3.52 1.491 1.101-0.938 1.737-2.271 1.737-3.699 0-2.72-2.288-4.931-5.098-4.931z"></path>
<path fill="rgb(255, 156, 0)" d="M27.449 16.033c-0.207-0.202-0.541-0.202-0.748 0-0.207 0.199-0.207 0.524 0 0.723l1.498 1.451c0.103 0.1 0.237 0.15 0.374 0.15 0.134 0 0.269-0.050 0.374-0.15 0.207-0.202 0.207-0.526 0-0.726l-1.497-1.448z"></path>
<path fill="rgb(255, 156, 0)" d="M28.338 4.452c0.207-0.202 0.207-0.527 0-0.726s-0.544-0.199-0.75 0l-1.498 1.449c-0.207 0.199-0.207 0.526 0 0.726 0.105 0.1 0.239 0.15 0.376 0.15 0.134 0 0.269-0.050 0.374-0.15l1.498-1.449z"></path>
<path fill="rgb(255, 156, 0)" d="M12.612 3.727c-0.207-0.199-0.544-0.199-0.75 0-0.204 0.199-0.204 0.524 0 0.726l1.498 1.449c0.105 0.1 0.239 0.15 0.374 0.15 0.137 0 0.272-0.050 0.376-0.15 0.207-0.199 0.207-0.527 0-0.726l-1.498-1.449z"></path>
<path fill="rgb(255, 156, 0)" d="M30.954 11.261h-2.117c-0.291 0-0.528 0.229-0.528 0.514 0 0.282 0.237 0.511 0.528 0.511h2.117c0.294 0 0.531-0.229 0.531-0.511 0-0.285-0.237-0.514-0.531-0.514z"></path>
<path fill="rgb(255, 156, 0)" d="M19.835 3.577c0.294 0 0.531-0.229 0.531-0.514v-2.049c0-0.282-0.237-0.511-0.531-0.511-0.291 0-0.528 0.229-0.528 0.511v2.049c0 0.285 0.237 0.514 0.528 0.514z"></path>
<path fill="rgb(73, 140, 232)" d="M16.113 24.698c-0.481 0-0.87 0.222-0.87 0.497l-1.194 4.836c0 0.274 0.391 0.497 0.872 0.497s0.873-0.222 0.873-0.497l1.191-4.836c0-0.275-0.389-0.497-0.872-0.497z"></path>
<path fill="rgb(73, 140, 232)" d="M11.095 26.404c-0.13-0.229-0.416-0.309-0.638-0.177l-1.716 1.025v-2.057c0-0.267-0.217-0.484-0.484-0.484s-0.484 0.217-0.484 0.484v2.057l-1.715-1.025c-0.225-0.133-0.511-0.052-0.638 0.177-0.13 0.232-0.055 0.528 0.169 0.663l1.731 1.032-1.731 1.032c-0.225 0.134-0.299 0.429-0.169 0.661 0.127 0.232 0.414 0.312 0.638 0.177l1.715-1.022v2.054c0 0.269 0.217 0.486 0.484 0.486s0.484-0.217 0.484-0.486v-2.054l1.715 1.022c0.222 0.134 0.508 0.055 0.638-0.177s0.052-0.526-0.172-0.661l-1.73-1.032 1.731-1.032c0.225-0.134 0.302-0.431 0.172-0.663z"></path>
<path fill="rgb(73, 140, 232)" d="M19.297 13.978c-0.015 0.005-0.055 0.010-0.097 0.013-0.286 0-0.521-0.179-0.576-0.441-0.479-2.299-2.593-3.966-5.026-3.966-2.603 0-4.781 1.892-5.069 4.403-0.020 0.174-0.127 0.329-0.285 0.419-0.16 0.085-0.351 0.095-0.519 0.022-0.68-0.297-1.389-0.449-2.107-0.449-2.783 0-5.131 2.329-5.131 5.080 0 2.755 2.348 5.083 5.131 5.083h13.677c2.78 0 5.128-2.329 5.128-5.083 0.001-2.752-2.347-5.080-5.127-5.080z"></path>
</svg>
