<?xml version="1.0" encoding="utf-8"?>
<!-- Generated by IcoMoon.io -->
<!DOCTYPE svg PUBLIC "-//W3C//DTD SVG 1.1//EN" "http://www.w3.org/Graphics/SVG/1.1/DTD/svg11.dtd">
<svg version="1.1" xmlns="http://www.w3.org/2000/svg" xmlns:xlink="http://www.w3.org/1999/xlink" width="32" height="32" viewBox="0 0 32 32">
<path fill="rgb(255, 156, 0)" d="M2.45 15.897c0.845 0.743 1.86 1.289 2.965 1.636-0.020-0.19-0.062-0.372-0.062-0.566 0-0.797 0.177-1.56 0.494-2.251-1.038 0.571-2.18 0.98-3.396 1.182z"></path>
<path fill="rgb(255, 156, 0)" d="M10.669 2.448c0.349 1.027 0.543 2.122 0.543 3.264 0 2.179-0.69 4.196-1.865 5.861 0.714-0.257 1.485-0.412 2.297-0.412 0.648 0 1.264 0.109 1.85 0.282 0.451-1.242 1.264-2.308 2.336-3.047-0.553-2.749-2.529-4.995-5.16-5.948z"></path>
<path fill="rgb(73, 140, 232)" d="M22.887 23.73c-0.481 0-0.87 0.222-0.87 0.497l-1.194 4.836c0 0.274 0.391 0.497 0.872 0.497s0.872-0.222 0.872-0.497l1.191-4.836c0.002-0.275-0.387-0.497-0.871-0.497z"></path>
<path fill="rgb(73, 140, 232)" d="M17.869 25.436c-0.13-0.229-0.416-0.309-0.638-0.177l-1.715 1.025v-2.057c0-0.267-0.217-0.484-0.484-0.484s-0.484 0.217-0.484 0.484v2.057l-1.715-1.025c-0.225-0.133-0.511-0.052-0.638 0.177-0.13 0.232-0.055 0.528 0.169 0.663l1.731 1.032-1.731 1.032c-0.225 0.134-0.299 0.429-0.169 0.661 0.127 0.232 0.414 0.312 0.638 0.177l1.715-1.022v2.054c0 0.269 0.217 0.486 0.484 0.486s0.484-0.217 0.484-0.486v-2.054l1.715 1.022c0.222 0.134 0.508 0.055 0.638-0.177s0.052-0.526-0.172-0.661l-1.73-1.032 1.731-1.032c0.224-0.134 0.301-0.431 0.171-0.663z"></path>
<path fill="rgb(73, 140, 232)" d="M25.104 13.010c-0.017 0.005-0.057 0.010-0.098 0.013-0.286 0-0.521-0.179-0.576-0.441-0.479-2.299-2.593-3.966-5.026-3.966-2.606 0-4.781 1.892-5.071 4.403-0.020 0.174-0.125 0.329-0.282 0.419-0.162 0.085-0.351 0.095-0.519 0.022-0.68-0.297-1.391-0.449-2.109-0.449-2.78 0-5.128 2.329-5.128 5.080 0 2.755 2.348 5.083 5.128 5.083h13.679c2.78 0 5.128-2.329 5.128-5.083 0.001-2.752-2.347-5.080-5.127-5.080z"></path>
</svg>
