<?xml version="1.0" encoding="utf-8"?>
<!-- Generated by IcoMoon.io -->
<!DOCTYPE svg PUBLIC "-//W3C//DTD SVG 1.1//EN" "http://www.w3.org/Graphics/SVG/1.1/DTD/svg11.dtd">
<svg version="1.1" xmlns="http://www.w3.org/2000/svg" xmlns:xlink="http://www.w3.org/1999/xlink" width="32" height="32" viewBox="0 0 32 32">
<path fill="rgb(255, 156, 0)" d="M20.042 5.881c-2.092 0-3.969 1.272-4.729 3.129 2.166 0.381 3.964 1.932 4.569 4.011 1.339 0.073 2.558 0.641 3.52 1.491 1.102-0.938 1.737-2.272 1.737-3.699 0-2.718-2.288-4.931-5.098-4.931z"></path>
<path fill="rgb(255, 156, 0)" d="M27.449 16.032c-0.207-0.199-0.541-0.199-0.748 0s-0.207 0.524 0 0.723l1.498 1.451c0.103 0.1 0.237 0.149 0.374 0.149 0.134 0 0.269-0.050 0.374-0.149 0.207-0.199 0.207-0.524 0-0.726l-1.497-1.448z"></path>
<path fill="rgb(255, 156, 0)" d="M28.338 4.452c0.207-0.199 0.207-0.526 0-0.726s-0.543-0.199-0.75 0l-1.498 1.449c-0.207 0.202-0.207 0.527 0 0.726 0.105 0.1 0.239 0.149 0.376 0.149 0.134 0 0.269-0.049 0.374-0.149l1.498-1.449z"></path>
<path fill="rgb(255, 156, 0)" d="M12.612 3.726c-0.207-0.199-0.544-0.199-0.75 0-0.204 0.199-0.204 0.527 0 0.726l1.498 1.449c0.105 0.1 0.239 0.149 0.374 0.149 0.137 0 0.272-0.049 0.376-0.149 0.207-0.199 0.207-0.524 0-0.726l-1.498-1.449z"></path>
<path fill="rgb(255, 156, 0)" d="M30.954 11.26h-2.117c-0.291 0-0.528 0.229-0.528 0.514 0 0.282 0.237 0.511 0.528 0.511h2.117c0.294 0 0.531-0.229 0.531-0.511 0-0.285-0.237-0.514-0.531-0.514z"></path>
<path fill="rgb(255, 156, 0)" d="M19.835 3.577c0.294 0 0.531-0.229 0.531-0.511v-2.049c0-0.285-0.237-0.514-0.531-0.514-0.291 0-0.528 0.229-0.528 0.514v2.049c0 0.282 0.237 0.511 0.528 0.511z"></path>
<path fill="rgb(73, 140, 232)" d="M15.933 26.406c-0.13-0.232-0.414-0.312-0.638-0.177l-1.715 1.022v-2.057c0-0.267-0.217-0.484-0.484-0.484s-0.484 0.217-0.484 0.484v2.057l-1.715-1.022c-0.225-0.134-0.508-0.055-0.638 0.177-0.13 0.229-0.052 0.526 0.169 0.66l1.731 1.032-1.731 1.032c-0.222 0.134-0.299 0.432-0.169 0.66 0.13 0.232 0.414 0.312 0.638 0.177l1.715-1.022v2.057c0 0.267 0.217 0.484 0.484 0.484s0.484-0.217 0.484-0.484v-2.057l1.715 1.022c0.225 0.134 0.508 0.055 0.638-0.177 0.13-0.229 0.052-0.526-0.172-0.66l-1.727-1.031 1.728-1.032c0.224-0.134 0.301-0.432 0.171-0.661z"></path>
<path fill="rgb(73, 140, 232)" d="M19.297 13.978c-0.016 0.005-0.055 0.010-0.098 0.013-0.286 0-0.521-0.18-0.576-0.441-0.479-2.299-2.593-3.966-5.026-3.966-2.603 0-4.781 1.892-5.068 4.403-0.020 0.174-0.127 0.332-0.285 0.419-0.16 0.087-0.351 0.095-0.519 0.022-0.68-0.296-1.389-0.449-2.106-0.449-2.783 0-5.131 2.329-5.131 5.083s2.348 5.080 5.131 5.080h13.677c2.78 0 5.128-2.326 5.128-5.080s-2.348-5.083-5.128-5.083z"></path>
</svg>
