<?xml version="1.0" encoding="utf-8"?>
<!-- Generated by IcoMoon.io -->
<!DOCTYPE svg PUBLIC "-//W3C//DTD SVG 1.1//EN" "http://www.w3.org/Graphics/SVG/1.1/DTD/svg11.dtd">
<svg version="1.1" xmlns="http://www.w3.org/2000/svg" xmlns:xlink="http://www.w3.org/1999/xlink" width="32" height="32" viewBox="0 0 32 32">
<path fill="rgb(255, 156, 0)" d="M20.043 6.848c-2.092 0-3.969 1.274-4.729 3.129 2.166 0.384 3.963 1.932 4.569 4.011 1.339 0.075 2.558 0.641 3.52 1.493 1.101-0.938 1.737-2.274 1.737-3.699 0.001-2.721-2.288-4.934-5.098-4.934z"></path>
<path fill="rgb(255, 156, 0)" d="M27.45 16.999c-0.207-0.199-0.541-0.199-0.748 0-0.207 0.202-0.207 0.527 0 0.726l1.498 1.449c0.103 0.1 0.237 0.15 0.374 0.15 0.134 0 0.269-0.050 0.374-0.15 0.207-0.199 0.207-0.524 0-0.723l-1.497-1.452z"></path>
<path fill="rgb(255, 156, 0)" d="M28.339 5.419c0.207-0.199 0.207-0.524 0-0.723-0.207-0.202-0.544-0.202-0.75 0l-1.498 1.449c-0.207 0.199-0.207 0.524 0 0.723 0.105 0.1 0.239 0.15 0.376 0.15 0.134 0 0.269-0.049 0.374-0.15l1.498-1.449z"></path>
<path fill="rgb(255, 156, 0)" d="M12.614 4.696c-0.207-0.202-0.544-0.202-0.75 0-0.204 0.199-0.204 0.524 0 0.723l1.498 1.448c0.105 0.1 0.239 0.15 0.374 0.15 0.137 0 0.272-0.049 0.376-0.15 0.207-0.199 0.207-0.524 0-0.723l-1.498-1.448z"></path>
<path fill="rgb(255, 156, 0)" d="M30.955 12.23h-2.117c-0.291 0-0.528 0.226-0.528 0.511s0.237 0.514 0.528 0.514h2.117c0.294 0 0.531-0.229 0.531-0.514s-0.237-0.511-0.531-0.511z"></path>
<path fill="rgb(255, 156, 0)" d="M19.837 4.544c0.294 0 0.531-0.226 0.531-0.511v-2.049c0-0.285-0.237-0.511-0.531-0.511-0.291 0-0.528 0.226-0.528 0.511v2.049c-0.001 0.285 0.236 0.511 0.528 0.511z"></path>
<path fill="rgb(73, 140, 232)" d="M15.147 25.665c-0.481 0-0.872 0.222-0.872 0.498l-1.191 4.834c0 0.274 0.389 0.498 0.873 0.498 0.481 0 0.87-0.225 0.87-0.498l1.194-4.834c-0.002-0.277-0.393-0.498-0.874-0.498z"></path>
<path fill="rgb(73, 140, 232)" d="M10.308 25.665c-0.481 0-0.872 0.222-0.872 0.498l-1.191 4.834c0 0.274 0.389 0.498 0.87 0.498 0.484 0 0.873-0.225 0.873-0.498l1.194-4.834c-0.001-0.277-0.393-0.498-0.874-0.498z"></path>
<path fill="rgb(73, 140, 232)" d="M19.298 14.948c-0.015 0.005-0.055 0.008-0.097 0.010-0.286 0.003-0.521-0.18-0.576-0.441-0.479-2.299-2.593-3.966-5.026-3.966-2.603 0-4.781 1.895-5.069 4.405-0.020 0.174-0.127 0.329-0.285 0.416-0.16 0.087-0.351 0.095-0.519 0.022-0.68-0.297-1.389-0.446-2.107-0.446-2.783 0-5.131 2.326-5.131 5.080s2.348 5.083 5.131 5.083h13.677c2.78 0 5.128-2.329 5.128-5.083s-2.347-5.079-5.127-5.079z"></path>
</svg>
