<?xml version="1.0" encoding="utf-8"?>
<!-- Generated by IcoMoon.io -->
<!DOCTYPE svg PUBLIC "-//W3C//DTD SVG 1.1//EN" "http://www.w3.org/Graphics/SVG/1.1/DTD/svg11.dtd">
<svg version="1.1" xmlns="http://www.w3.org/2000/svg" xmlns:xlink="http://www.w3.org/1999/xlink" width="32" height="32" viewBox="0 0 32 32">
<path fill="rgb(73, 140, 232)" d="M21.74 24.47c-0.13-0.232-0.416-0.312-0.641-0.177l-1.712 1.022v-2.057c0-0.267-0.217-0.484-0.484-0.484s-0.484 0.217-0.484 0.484v2.057l-1.715-1.022c-0.225-0.134-0.511-0.055-0.638 0.177-0.13 0.229-0.055 0.526 0.169 0.66l1.731 1.032-1.731 1.032c-0.225 0.134-0.299 0.432-0.169 0.66 0.127 0.232 0.414 0.312 0.638 0.177l1.715-1.022v2.057c0 0.267 0.217 0.484 0.484 0.484s0.484-0.217 0.484-0.484v-2.057l1.712 1.022c0.225 0.134 0.511 0.055 0.641-0.177 0.13-0.229 0.052-0.526-0.172-0.66l-1.73-1.031 1.731-1.032c0.224-0.135 0.301-0.432 0.171-0.661z"></path>
<path fill="rgb(73, 140, 232)" d="M25.104 12.042c-0.017 0.005-0.057 0.010-0.097 0.013-0.286 0-0.521-0.18-0.576-0.441-0.478-2.299-2.593-3.966-5.026-3.966-2.606 0-4.781 1.892-5.071 4.403-0.020 0.174-0.125 0.332-0.282 0.419-0.162 0.087-0.351 0.095-0.519 0.022-0.68-0.296-1.391-0.449-2.109-0.449-2.78 0-5.128 2.329-5.128 5.083s2.348 5.080 5.128 5.080h13.679c2.78 0 5.128-2.326 5.128-5.080s-2.348-5.083-5.128-5.083z"></path>
<path fill="rgb(255, 156, 0)" d="M2.45 14.93c0.845 0.743 1.86 1.289 2.964 1.636-0.020-0.19-0.062-0.372-0.062-0.563 0-0.8 0.177-1.56 0.494-2.253-1.037 0.572-2.179 0.979-3.395 1.181z"></path>
<path fill="rgb(255, 156, 0)" d="M10.672 1.482c0.347 1.025 0.541 2.122 0.541 3.261 0 2.182-0.691 4.199-1.865 5.861 0.713-0.257 1.484-0.411 2.296-0.411 0.648 0 1.264 0.109 1.85 0.285 0.451-1.244 1.264-2.311 2.336-3.047-0.553-2.753-2.529-4.999-5.157-5.949z"></path>
</svg>
