<?xml version="1.0" encoding="utf-8"?>
<!-- Generated by IcoMoon.io -->
<!DOCTYPE svg PUBLIC "-//W3C//DTD SVG 1.1//EN" "http://www.w3.org/Graphics/SVG/1.1/DTD/svg11.dtd">
<svg version="1.1" xmlns="http://www.w3.org/2000/svg" xmlns:xlink="http://www.w3.org/1999/xlink" width="32" height="32" viewBox="0 0 32 32">
<path fill="rgb(73, 140, 232)" d="M26.581 23.501c-0.13-0.232-0.416-0.309-0.641-0.177l-1.712 1.025v-2.057c0-0.267-0.217-0.484-0.486-0.484-0.267 0-0.484 0.217-0.484 0.484v2.057l-1.713-1.025c-0.225-0.133-0.511-0.055-0.641 0.177s-0.052 0.528 0.172 0.663l1.731 1.032-1.731 1.032c-0.225 0.134-0.302 0.429-0.172 0.66 0.13 0.232 0.416 0.312 0.641 0.177l1.713-1.022v2.056c0 0.269 0.217 0.486 0.484 0.486 0.269 0 0.486-0.217 0.486-0.486v-2.054l1.712 1.022c0.225 0.134 0.511 0.055 0.641-0.177s0.052-0.526-0.172-0.66l-1.731-1.032 1.731-1.032c0.226-0.136 0.302-0.433 0.172-0.665z"></path>
<path fill="rgb(73, 140, 232)" d="M18.838 23.501c-0.13-0.232-0.416-0.309-0.641-0.177l-1.712 1.025v-2.057c0-0.267-0.217-0.484-0.484-0.484-0.269 0-0.484 0.217-0.484 0.484v2.057l-1.715-1.025c-0.225-0.133-0.511-0.055-0.641 0.177-0.127 0.232-0.052 0.528 0.172 0.663l1.731 1.032-1.731 1.032c-0.225 0.134-0.299 0.429-0.172 0.66 0.13 0.232 0.416 0.312 0.641 0.177l1.715-1.022v2.056c0 0.269 0.215 0.486 0.484 0.486 0.267 0 0.484-0.217 0.484-0.486v-2.054l1.712 1.022c0.225 0.134 0.511 0.055 0.641-0.177s0.052-0.526-0.172-0.66l-1.731-1.032 1.731-1.032c0.225-0.136 0.302-0.433 0.172-0.665z"></path>
<path fill="rgb(73, 140, 232)" d="M11.095 23.501c-0.13-0.232-0.416-0.309-0.641-0.177l-1.713 1.025v-2.057c0-0.267-0.217-0.484-0.484-0.484s-0.484 0.217-0.484 0.484v2.057l-1.715-1.025c-0.225-0.133-0.511-0.055-0.638 0.177-0.13 0.232-0.055 0.528 0.169 0.663l1.731 1.032-1.731 1.032c-0.225 0.134-0.299 0.429-0.169 0.66 0.127 0.232 0.414 0.312 0.638 0.177l1.715-1.022v2.056c0 0.269 0.217 0.486 0.484 0.486s0.484-0.217 0.484-0.486v-2.054l1.712 1.022c0.225 0.134 0.511 0.055 0.641-0.177s0.052-0.526-0.172-0.66l-1.731-1.032 1.731-1.032c0.226-0.136 0.303-0.433 0.173-0.665z"></path>
<path fill="rgb(73, 140, 232)" d="M9.285 20.602h12.951c3.395 0 5.936-3.42 5.936-6.477 0-2.962-2.383-6.262-5.62-6.467-0.713-2.481-3.047-4.24-5.711-4.24-2.785 0-5.151 1.897-5.759 4.509-0.586-0.185-1.187-0.28-1.797-0.28-3.395 0-5.933 3.42-5.933 6.477s2.538 6.478 5.933 6.478z"></path>
</svg>
