<?xml version="1.0" encoding="utf-8"?>
<!-- Generated by IcoMoon.io -->
<!DOCTYPE svg PUBLIC "-//W3C//DTD SVG 1.1//EN" "http://www.w3.org/Graphics/SVG/1.1/DTD/svg11.dtd">
<svg version="1.1" xmlns="http://www.w3.org/2000/svg" xmlns:xlink="http://www.w3.org/1999/xlink" width="32" height="32" viewBox="0 0 32 32">
<path fill="rgb(255, 156, 0)" d="M26.428 18.202c-0.134-0.134-0.351-0.134-0.486 0s-0.134 0.351 0 0.486l1.943 1.944c0.067 0.068 0.155 0.1 0.242 0.1 0.090 0 0.177-0.033 0.244-0.1 0.132-0.134 0.132-0.351 0-0.486l-1.943-1.944z"></path>
<path fill="rgb(255, 156, 0)" d="M15.745 7.993c0.134-0.134 0.134-0.351 0-0.486l-1.943-1.942c-0.132-0.134-0.351-0.134-0.484 0-0.134 0.132-0.134 0.351 0 0.484l1.942 1.944c0.065 0.068 0.155 0.103 0.242 0.103s0.175-0.036 0.243-0.104z"></path>
<path fill="rgb(255, 156, 0)" d="M20.5 5.879c0.192 0 0.344-0.152 0.344-0.344v-2.751c0-0.19-0.152-0.342-0.344-0.342-0.19 0-0.342 0.152-0.342 0.342v2.75c0 0.193 0.152 0.345 0.342 0.345z"></path>
<path fill="rgb(255, 156, 0)" d="M20.729 7.599c-2.862 0-5.196 2.214-5.442 5.016 0.693 0.653 1.196 1.498 1.463 2.438 0.075-0.003 0.144-0.022 0.222-0.022 2.196 0 4.031 1.473 4.623 3.48 2.615-0.419 4.629-2.677 4.629-5.412-0.001-3.033-2.466-5.499-5.495-5.499z"></path>
<path fill="rgb(255, 156, 0)" d="M26.183 8.095c0.090 0 0.177-0.035 0.244-0.103l1.942-1.944c0.132-0.133 0.132-0.351 0-0.484-0.134-0.134-0.351-0.134-0.486 0l-1.943 1.942c-0.134 0.134-0.134 0.351 0 0.486 0.069 0.069 0.156 0.104 0.243 0.104z"></path>
<path fill="rgb(255, 156, 0)" d="M31.142 13.098h-2.745c-0.192 0-0.344 0.152-0.344 0.345 0 0.19 0.152 0.344 0.344 0.344h2.745c0.19 0 0.344-0.155 0.344-0.344 0-0.193-0.155-0.345-0.344-0.345z"></path>
<path fill="rgb(73, 140, 232)" d="M13.214 24.696c-0.484 0-0.872 0.225-0.872 0.498l-1.194 4.834c0 0.277 0.391 0.498 0.872 0.498 0.484 0 0.873-0.222 0.873-0.498l1.191-4.834c0-0.274-0.389-0.498-0.87-0.498z"></path>
<path fill="rgb(73, 140, 232)" d="M8.194 26.404c-0.13-0.232-0.414-0.309-0.638-0.177l-1.715 1.025v-2.057c0-0.267-0.217-0.484-0.484-0.484s-0.484 0.217-0.484 0.484v2.057l-1.715-1.025c-0.222-0.133-0.509-0.055-0.638 0.177s-0.052 0.528 0.172 0.661l1.73 1.035-1.731 1.032c-0.225 0.134-0.302 0.429-0.172 0.661s0.416 0.312 0.638 0.177l1.715-1.022v2.054c0 0.269 0.217 0.484 0.484 0.484s0.484-0.214 0.484-0.484v-2.054l1.715 1.022c0.225 0.134 0.508 0.055 0.638-0.177s0.052-0.527-0.169-0.661l-1.73-1.032 1.73-1.035c0.223-0.133 0.3-0.429 0.17-0.661z"></path>
<path fill="rgb(73, 140, 232)" d="M15.72 15.634c-0.013 0.005-0.045 0.008-0.079 0.008-0.232 0.003-0.421-0.142-0.464-0.351-0.389-1.835-2.096-3.166-4.061-3.166-2.104 0-3.864 1.511-4.099 3.515-0.015 0.139-0.1 0.264-0.229 0.334-0.127 0.070-0.282 0.075-0.416 0.017-0.551-0.237-1.125-0.356-1.705-0.356-2.246 0-4.143 1.857-4.143 4.056s1.897 4.058 4.143 4.058h11.054c2.246 0 4.143-1.86 4.143-4.058s-1.897-4.057-4.143-4.057z"></path>
</svg>
