<?xml version="1.0" encoding="utf-8"?>
<!-- Generated by IcoMoon.io -->
<!DOCTYPE svg PUBLIC "-//W3C//DTD SVG 1.1//EN" "http://www.w3.org/Graphics/SVG/1.1/DTD/svg11.dtd">
<svg version="1.1" xmlns="http://www.w3.org/2000/svg" xmlns:xlink="http://www.w3.org/1999/xlink" width="32" height="32" viewBox="0 0 32 32">
<path fill="rgb(255, 156, 0)" d="M2.45 14.93c0.845 0.743 1.86 1.286 2.964 1.633-0.019-0.187-0.062-0.369-0.062-0.563 0-0.797 0.177-1.56 0.494-2.253-1.037 0.572-2.179 0.981-3.395 1.184z"></path>
<path fill="rgb(255, 156, 0)" d="M11.644 10.194c0.648 0 1.264 0.109 1.85 0.282 0.451-1.242 1.264-2.308 2.336-3.047-0.554-2.75-2.53-4.996-5.158-5.949 0.347 1.027 0.541 2.122 0.541 3.264 0 2.179-0.691 4.196-1.865 5.861 0.714-0.259 1.485-0.411 2.297-0.411z"></path>
<path fill="rgb(255, 156, 0)" d="M17.937 17.937h-4.841l-1.935 6.773h2.904l-1.937 5.809 5.809-7.743h-2.905z"></path>
<path fill="rgb(73, 140, 232)" d="M21.92 22.761c-0.481 0-0.872 0.225-0.872 0.498l-1.191 4.834c0 0.277 0.389 0.498 0.872 0.498 0.481 0 0.87-0.222 0.87-0.498l1.194-4.834c-0.001-0.274-0.392-0.498-0.873-0.498z"></path>
<path fill="rgb(73, 140, 232)" d="M25.104 12.043c-0.017 0.005-0.057 0.010-0.097 0.010-0.286 0.003-0.521-0.177-0.576-0.441-0.478-2.296-2.593-3.963-5.026-3.963-2.606 0-4.781 1.892-5.071 4.403-0.020 0.174-0.125 0.329-0.282 0.416-0.162 0.087-0.351 0.097-0.519 0.022-0.68-0.297-1.391-0.446-2.109-0.446-2.78 0-5.128 2.326-5.128 5.080 0 2.555 2.027 4.716 4.537 5.021l1.294-5.178h7.743l-3.493 5.24h8.725c2.78 0 5.128-2.329 5.128-5.083s-2.348-5.080-5.128-5.080z"></path>
</svg>
