<?xml version="1.0" encoding="utf-8"?>
<!-- Generated by IcoMoon.io -->
<!DOCTYPE svg PUBLIC "-//W3C//DTD SVG 1.1//EN" "http://www.w3.org/Graphics/SVG/1.1/DTD/svg11.dtd">
<svg version="1.1" xmlns="http://www.w3.org/2000/svg" xmlns:xlink="http://www.w3.org/1999/xlink" width="32" height="32" viewBox="0 0 32 32">
<path fill="rgb(255, 156, 0)" d="M26.424 18.204c-0.134-0.134-0.351-0.134-0.486 0-0.134 0.132-0.134 0.351 0 0.486l1.943 1.942c0.067 0.068 0.155 0.103 0.242 0.103 0.090 0 0.177-0.035 0.244-0.103 0.132-0.132 0.132-0.351 0-0.486l-1.943-1.942z"></path>
<path fill="rgb(255, 156, 0)" d="M15.742 7.995c0.134-0.134 0.134-0.351 0-0.486l-1.943-1.944c-0.132-0.134-0.351-0.134-0.484 0-0.134 0.134-0.134 0.351 0 0.486l1.942 1.944c0.065 0.068 0.155 0.1 0.242 0.1s0.175-0.033 0.243-0.1z"></path>
<path fill="rgb(255, 156, 0)" d="M20.496 5.88c0.192 0 0.344-0.155 0.344-0.344v-2.75c0-0.19-0.152-0.344-0.344-0.344-0.19 0-0.342 0.155-0.342 0.344v2.75c0 0.19 0.152 0.344 0.342 0.344z"></path>
<path fill="rgb(255, 156, 0)" d="M20.725 7.598c-2.862 0-5.196 2.214-5.442 5.016 0.693 0.655 1.196 1.498 1.463 2.441 0.075-0.005 0.144-0.022 0.222-0.022 2.196 0 4.031 1.473 4.623 3.478 2.615-0.419 4.629-2.675 4.629-5.412 0-3.031-2.466-5.499-5.495-5.499z"></path>
<path fill="rgb(255, 156, 0)" d="M26.18 8.094c0.090 0 0.177-0.033 0.244-0.1l1.942-1.944c0.132-0.134 0.132-0.351 0-0.486-0.134-0.134-0.351-0.134-0.486 0l-1.943 1.944c-0.134 0.134-0.134 0.351 0 0.486 0.068 0.067 0.155 0.1 0.243 0.1z"></path>
<path fill="rgb(255, 156, 0)" d="M31.139 13.097h-2.745c-0.192 0-0.344 0.155-0.344 0.344s0.152 0.345 0.344 0.345h2.745c0.19 0 0.344-0.155 0.344-0.345s-0.155-0.344-0.344-0.344z"></path>
<path fill="rgb(73, 140, 232)" d="M13.211 24.697c-0.484 0-0.872 0.222-0.872 0.498l-1.194 4.834c0 0.274 0.391 0.497 0.872 0.497 0.484 0 0.873-0.222 0.873-0.497l1.191-4.834c0-0.276-0.388-0.498-0.87-0.498z"></path>
<path fill="rgb(73, 140, 232)" d="M8.369 24.697c-0.481 0-0.87 0.222-0.87 0.498l-1.194 4.834c0 0.274 0.391 0.497 0.872 0.497s0.873-0.222 0.873-0.497l1.191-4.834c0.001-0.276-0.388-0.498-0.872-0.498z"></path>
<path fill="rgb(73, 140, 232)" d="M15.716 15.633c-0.013 0.005-0.045 0.008-0.079 0.010-0.232 0-0.421-0.142-0.464-0.351-0.389-1.835-2.096-3.166-4.061-3.166-2.104 0-3.864 1.511-4.099 3.515-0.015 0.139-0.1 0.262-0.229 0.332-0.127 0.070-0.282 0.077-0.416 0.020-0.551-0.237-1.125-0.359-1.705-0.359-2.246 0-4.143 1.86-4.143 4.058s1.897 4.056 4.143 4.056h11.054c2.246 0 4.143-1.857 4.143-4.056s-1.897-4.059-4.143-4.059z"></path>
</svg>
