<?xml version="1.0" encoding="utf-8"?>
<!-- Generated by IcoMoon.io -->
<!DOCTYPE svg PUBLIC "-//W3C//DTD SVG 1.1//EN" "http://www.w3.org/Graphics/SVG/1.1/DTD/svg11.dtd">
<svg version="1.1" xmlns="http://www.w3.org/2000/svg" xmlns:xlink="http://www.w3.org/1999/xlink" width="32" height="32" viewBox="0 0 32 32">
<path fill="rgb(255, 156, 0)" d="M26.428 17.233c-0.134-0.134-0.351-0.134-0.486 0s-0.134 0.351 0 0.486l1.942 1.944c0.068 0.068 0.155 0.103 0.242 0.103s0.177-0.035 0.244-0.103c0.133-0.134 0.133-0.351 0-0.486l-1.942-1.944z"></path>
<path fill="rgb(255, 156, 0)" d="M15.745 7.027c0.134-0.134 0.134-0.354 0-0.486l-1.943-1.945c-0.133-0.134-0.351-0.134-0.484 0-0.134 0.134-0.134 0.351 0 0.486l1.943 1.944c0.065 0.065 0.155 0.1 0.242 0.1 0.087 0.001 0.174-0.034 0.242-0.099z"></path>
<path fill="rgb(255, 156, 0)" d="M20.499 4.912c0.192 0 0.344-0.155 0.344-0.344v-2.75c0-0.192-0.152-0.344-0.344-0.344-0.19 0-0.342 0.152-0.342 0.344v2.75c0.001 0.19 0.153 0.344 0.342 0.344z"></path>
<path fill="rgb(255, 156, 0)" d="M20.729 6.63c-2.862 0-5.196 2.214-5.442 5.016 0.693 0.653 1.194 1.498 1.463 2.441 0.075-0.005 0.144-0.022 0.222-0.022 2.196 0 4.031 1.473 4.622 3.478 2.615-0.419 4.629-2.675 4.629-5.412 0.001-3.031-2.465-5.499-5.494-5.499z"></path>
<path fill="rgb(255, 156, 0)" d="M26.183 7.127c0.090 0 0.177-0.035 0.244-0.1l1.943-1.944c0.133-0.134 0.133-0.351 0-0.486-0.134-0.134-0.351-0.134-0.486 0l-1.942 1.944c-0.134 0.132-0.134 0.351 0 0.486 0.067 0.065 0.154 0.1 0.241 0.1z"></path>
<path fill="rgb(255, 156, 0)" d="M31.142 12.129h-2.745c-0.19 0-0.344 0.155-0.344 0.344s0.155 0.344 0.344 0.344h2.745c0.19 0 0.344-0.155 0.344-0.344s-0.155-0.344-0.344-0.344z"></path>
<path fill="rgb(73, 140, 232)" d="M16.904 25.435c-0.127-0.229-0.414-0.309-0.638-0.177l-1.715 1.025v-2.057c0-0.267-0.217-0.484-0.484-0.484s-0.484 0.217-0.484 0.484v2.057l-1.715-1.025c-0.222-0.132-0.509-0.052-0.638 0.177-0.13 0.232-0.052 0.528 0.172 0.663l1.731 1.032-1.731 1.032c-0.225 0.134-0.302 0.429-0.172 0.66 0.13 0.232 0.416 0.312 0.638 0.177l1.715-1.022v2.058c0 0.267 0.217 0.484 0.484 0.484s0.484-0.217 0.484-0.484v-2.057l1.715 1.022c0.225 0.134 0.511 0.055 0.638-0.177 0.13-0.232 0.055-0.526-0.169-0.66l-1.73-1.032 1.73-1.032c0.225-0.135 0.299-0.432 0.169-0.664z"></path>
<path fill="rgb(73, 140, 232)" d="M9.164 25.435c-0.13-0.229-0.416-0.309-0.641-0.177l-1.715 1.025v-2.057c0-0.267-0.214-0.484-0.484-0.484-0.267 0-0.484 0.217-0.484 0.484v2.057l-1.713-1.025c-0.225-0.132-0.511-0.052-0.641 0.177-0.13 0.232-0.052 0.528 0.172 0.663l1.731 1.033-1.731 1.032c-0.225 0.134-0.302 0.429-0.172 0.66 0.13 0.232 0.416 0.312 0.641 0.177l1.713-1.022v2.057c0 0.267 0.217 0.484 0.484 0.484 0.269 0 0.484-0.217 0.484-0.484v-2.057l1.715 1.022c0.225 0.134 0.511 0.055 0.641-0.177 0.127-0.232 0.052-0.526-0.172-0.66l-1.731-1.032 1.731-1.032c0.225-0.135 0.299-0.432 0.172-0.664z"></path>
<path fill="rgb(73, 140, 232)" d="M15.72 14.665c-0.013 0.005-0.045 0.008-0.080 0.010-0.232 0-0.419-0.144-0.464-0.354-0.389-1.835-2.096-3.166-4.061-3.166-2.104 0-3.864 1.514-4.096 3.515-0.017 0.139-0.103 0.264-0.232 0.334-0.127 0.070-0.282 0.077-0.416 0.017-0.551-0.237-1.125-0.356-1.705-0.356-2.246 0-4.143 1.857-4.143 4.056 0 2.201 1.897 4.058 4.143 4.058h11.054c2.246 0 4.143-1.857 4.143-4.058 0.001-2.199-1.896-4.056-4.142-4.056z"></path>
</svg>
