<svg version="1.1" id="Layer_1" xmlns="http://www.w3.org/2000/svg" xmlns:xlink="http://www.w3.org/1999/xlink" x="0px" y="0px"
	 width="618px" height="509px" viewBox="0 0 618 509" enable-background="new 0 0 618 509" xml:space="preserve">
<g>
	<path fill="#0069A7" d="M550.435,442.441c-1.088,8.317-8.694,15.052-17.021,15.052H97.166c-8.316,0-14.161-6.734-13.064-15.052
		l15.178-115.324c1.115-8.299,8.722-15.043,17.048-15.043h436.239c8.325,0,14.16,6.744,13.055,15.043L550.435,442.441z"/>
</g>
<g>
	<path fill="#FFFFFF" d="M142.986,390.902c3.857-29.33,23.945-46.404,45.219-49.282l5.719-43.356
		c0.729-5.557-1.133-5.943-0.963-7.283c0.18-1.34,3.732-2.113,6.411-2.113c6.33,0,9.854,3.84,9.243,8.443l-13.559,102.997
		c-0.558,4.217,0.755,8.82,5.358,8.82c7.67,0,12.741-12.273,15.573-20.707c1.312-4.028,3.453-5.764,5.368-5.764
		c3.065,0,6.159,4.227,5.683,7.868c-0.027,0.197-0.081,0.575-0.378,1.339c-4.918,12.66-14.862,29.924-31.362,29.924
		c-6.519,0-11.293-3.066-13.586-7.48c-4.783,4.226-10.763,7.48-18.055,7.48C148.705,421.788,140.334,411.053,142.986,390.902z
		 M180.311,401.647l6.24-47.367c-12.768,2.293-25.465,11.312-28.629,35.292c-1.816,13.802,3.569,19.556,10.277,19.556
		C173.189,409.128,177.262,405.873,180.311,401.647z"/>
	<path fill="#FFFFFF" d="M231.318,397.232c1.835,6.528,6.304,11.896,16.275,11.896c14.953,0,22.739-12.462,26.578-24.169
		c2.859-8.632,13.092-4.783,11.446,1.925c-2.877,11.697-13.604,34.904-41.802,34.904c-17.451,0-32.099-14-28.943-37.979
		c3.201-24.35,20.178-42.575,34.941-42.575c10.744,0,16.229,7.858,14.719,19.368C262.663,374.799,250.66,391.676,231.318,397.232z
		 M230.41,386.686c10.17-4.406,17.615-14.387,19.135-25.896c0.557-4.217-0.647-6.708-3.147-6.708
		c-9.396,0-15.052,21.095-15.726,29.16C230.519,384.393,230.563,385.534,230.41,386.686z"/>
	<path fill="#FFFFFF" d="M273.795,386.308c3.029-8.442,8.496-19.376,13.289-29.537c-1.537-2.877-2.311-5.754-1.879-9.018
		c0.854-6.52,13.118-15.151,18.297-15.151c4.604,0,6.447,3.453,5.764,8.632c-0.729,5.566-5.979,11.896-6.32,13.047
		c6.914,15.915,17.703,22.82,15.303,41.037c-0.297,2.302-1.007,4.792-1.861,6.905c9.262-1.915,14.629-7.67,17.543-13.802
		c1.825-3.65,3.363-5.179,5.089-5.179c3.265,0,6.249,4.98,5.898,7.66c-0.503,3.849-5.88,11.132-10.763,14.773
		c-6.572,4.801-14.926,8.442-26.912,9.207c-5.133,4.028-11.842,6.905-19.699,6.905c-8.057,0-16.688-4.405-20.033-8.057
		c-8.219-9.009-1.699-19.179,2.526-19.179c3.831,0,19.817,11.123,29.401,11.123c2.438-2.491,5.135-6.896,5.764-11.698
		c1.592-12.084-4.45-20.132-10.25-27.046c-4.055,7.48-6.833,14.009-10.537,23.207C281.248,398.194,271.412,392.827,273.795,386.308z
		"/>
	<path fill="#FFFFFF" d="M347.893,400.308c-0.225,1.727-1.159,8.82,3.831,8.82c7.669,0,12.741-12.273,15.573-20.707
		c3.848-11.707,13.02-2.688,10.673,3.443c-5.126,12.66-14.872,29.924-31.362,29.924c-10.16,0-15.033-8.245-13.738-18.027
		l6.742-51.216c0.477-3.642-0.135-4.792,0.037-6.132c0.252-1.915,2.732-3.265,5.422-3.265c6.33,0,9.846,3.84,9.242,8.443
		L347.893,400.308z M343.551,312.47c0.881-6.726,6.717-11.706,13.046-11.706c6.708,0,11.042,4.98,10.151,11.706
		c-0.827,6.33-6.527,11.689-13.235,11.689C347.183,324.159,342.714,318.8,343.551,312.47z"/>
	<path fill="#FFFFFF" d="M397.463,433.108l2.652-20.141c-4.343,3.83-9.926,6.905-16.634,6.905c-14.962,0-21.157-12.66-19.008-28.971
		c4.217-32.027,29.033-51.584,52.429-51.584c5.18,0,8.416,3.066,7.77,8.048c-0.432,3.264-1.16,4.414-3.076,4.414
		c-1.727,0-3.596-0.386-5.521-0.386c-14.565,0-33.277,12.471-36.919,40.093c-1.312,9.972,2.149,15.726,8.865,15.726
		c7.67,0,12.85-10.169,15.196-17.839l2.858-21.669c0.477-3.651-0.135-4.802,0.037-6.133c0.26-1.933,2.725-3.264,5.412-3.264
		c6.33,0,9.855,3.83,9.252,8.434l-6.869,52.169c7.912-7.67,15.312-17.264,20.887-30.49c1.682-4.028,3.444-5.764,5.369-5.764
		c3.065,0,6.149,4.227,5.673,7.868c-0.026,0.197-0.153,1.15-0.449,1.924c-9.441,22.235-22.056,33.565-33.601,42.574l-4.371,33.179
		c-2.652,20.141-13.756,27.235-23.53,27.235c-10.745,0-17.12-9.783-15.511-22.057C370.93,454.014,383.338,444.23,397.463,433.108z
		 M392.842,468.202l2.706-20.519c-6.978,6.33-12.156,13.622-13.667,25.131c-0.782,5.943,0.521,10.547,3.597,10.547
		C391.609,483.361,392.365,471.853,392.842,468.202z"/>
	<path fill="#FFFFFF" d="M440.28,352.545c0.477-3.642-0.135-4.792,0.036-6.132c0.252-1.915,2.733-3.265,5.422-3.265
		c6.33,0,9.846,3.84,9.243,8.443l-1.142,8.632c6.6-10.745,14.584-18.99,23.98-18.99c12.848,0,14.529,10.547,13.369,19.368
		l-5.232,39.706c-0.225,1.727-1.16,8.82,3.83,8.82c7.67,0,12.741-12.273,15.573-20.707c1.295-4.028,3.453-5.764,5.368-5.764
		c3.066,0,6.15,4.227,5.674,7.868c-0.027,0.197-0.081,0.575-0.369,1.339c-4.936,12.66-14.871,29.924-31.361,29.924
		c-10.161,0-15.025-8.245-13.74-18.027l5.126-38.942c0.782-5.943,1.062-10.925-2.581-10.925c-5.565,0-19.619,16.49-22.964,31.641
		l-3.687,28.009c-0.485,3.642-0.891,8.245-6.456,8.245c-3.83,0-9.036-1.34-8.101-8.434L440.28,352.545z"/>
</g>
<g>
	<path d="M115.239,37.044c8.577,0,16.185,0.643,22.794,1.915c6.607,1.276,12.291,2.787,17.057,4.527
		c4.747,1.739,8.694,3.425,11.832,5.044c3.129,1.627,5.62,2.782,7.48,3.479l-16.355,35.152c-1.627-0.697-3.893-1.794-6.788-3.305
		c-2.904-1.506-6.267-3.012-10.097-4.527c-3.822-1.506-7.949-2.896-12.355-4.177c-4.405-1.271-8.928-1.91-13.567-1.91
		c-5.341,0-9.98,0.867-13.928,2.607s-7.302,3.889-10.089,6.438c-2.787,2.559-4.936,5.342-6.438,8.354
		c-1.511,3.021-2.383,5.688-2.607,8.007c-0.936,6.959,0.342,12.997,3.821,18.096c3.479,5.106,8.119,9.805,13.928,14.099
		c5.79,4.293,12.12,8.645,18.963,13.051c6.843,4.41,13.109,9.396,18.792,14.962c5.683,5.57,10.098,12.129,13.227,19.664
		c3.139,7.544,4.002,16.652,2.607,27.32c-3.246,21.813-12.066,38.754-26.443,50.82c-14.396,12.066-34.23,18.091-59.515,18.091
		c-8.821,0-16.589-0.755-23.324-2.266c-6.726-1.511-12.524-3.237-17.398-5.216c-4.873-1.969-8.991-3.884-12.354-5.736
		c-3.362-1.861-5.861-3.138-7.48-3.83l16.005-35.157c1.628,0.697,3.884,1.803,6.788,3.31c2.896,1.51,6.268,3.017,10.098,4.522
		c3.821,1.511,7.939,2.904,12.354,4.177c4.405,1.276,8.929,1.915,13.567,1.915c4.182,0,8.354-0.521,12.535-1.569
		c4.172-1.043,8.057-2.607,11.652-4.698c3.597-2.086,6.617-4.752,9.055-8.002c2.437-3.246,4.001-7.188,4.693-11.833
		c0.926-6.496-0.404-12.062-4.001-16.706c-3.597-4.64-8.353-9.05-14.27-13.227s-12.237-8.465-18.963-12.876
		c-6.735-4.405-12.938-9.513-18.622-15.312c-5.691-5.799-10.097-12.583-13.227-20.36c-3.129-7.773-3.884-17.345-2.266-28.715
		c2.788-20.415,11.492-36.541,26.103-48.374C73.123,42.964,92.032,37.044,115.239,37.044z"/>
	<path d="M313.268,270.229h-39.671v-20.888c-3.255,3.021-6.852,5.979-10.79,8.884c-3.947,2.896-8.299,5.565-13.055,8.002
		c-4.757,2.438-9.801,4.406-15.143,5.917c-5.332,1.511-10.906,2.266-16.697,2.266c-7.66,0-14.683-1.69-21.058-5.053
		c-6.384-3.363-11.608-8.642-15.663-15.834c-4.064-7.185-6.789-16.473-8.182-27.843c-1.395-11.365-0.927-25.06,1.393-41.068
		c2.555-17.861,6.672-32.944,12.355-45.245c5.682-12.296,12.408-22.213,20.186-29.757c7.777-7.535,16.301-12.988,25.58-16.355
		c9.279-3.363,18.793-5.049,28.539-5.049c11.833,0,24.592,0.696,38.285,2.09c13.686,1.39,26.453,3.251,38.286,5.566L313.268,270.229
		z M243.313,235.076c6.033,0,11.778-1.794,17.228-5.396c5.449-3.592,9.801-7.363,13.056-11.311l13.227-93.273
		c-3.255-0.229-6.681-0.463-10.269-0.696c-3.605-0.226-7.373-0.347-11.311-0.347c-11.375,0-20.366,4.177-26.975,12.529
		c-6.618,8.354-11.428,22.969-14.44,43.852c-1.394,10.443-2.041,19.143-1.915,26.103c0.107,6.959,1.043,12.588,2.778,16.881
		c1.744,4.294,4.181,7.306,7.31,9.051C235.141,234.208,238.908,235.076,243.313,235.076z"/>
	<path d="M489.715,270.229h-40.722l0.351-24.017l-10.789,8.704c-1.628,1.169-3.831,2.841-6.609,5.044
		c-2.787,2.203-6.15,4.352-10.098,6.438c-3.947,2.096-8.406,3.947-13.396,5.566c-4.99,1.627-10.386,2.445-16.186,2.445
		c-16.473,0-27.549-5.107-33.232-15.321c-5.691-10.206-7.021-25.864-4.01-46.98L372.08,91.339h46.989l-13.928,97.449
		c-1.159,8.587-1.969,15.722-2.437,21.404c-0.467,5.687-0.234,10.268,0.701,13.747c0.926,3.48,2.545,5.917,4.873,7.311
		c2.312,1.39,5.566,2.086,9.738,2.086c3.255,0,6.501-0.751,9.746-2.262c3.246-1.506,6.322-3.309,9.227-5.395
		c2.895-2.091,5.512-4.289,7.831-6.613c2.319-2.315,4.172-4.177,5.565-5.57l17.408-122.157h46.979L489.715,270.229z"/>
	<path d="M571.15,270.229h-46.979l35.147-250.237L607,13.032L571.15,270.229z"/>
</g>
</svg>