<?xml version="1.0" encoding="utf-8"?>
<!-- Generated by IcoMoon.io -->
<!DOCTYPE svg PUBLIC "-//W3C//DTD SVG 1.1//EN" "http://www.w3.org/Graphics/SVG/1.1/DTD/svg11.dtd">
<svg version="1.1" xmlns="http://www.w3.org/2000/svg" xmlns:xlink="http://www.w3.org/1999/xlink" width="32" height="32" viewBox="0 0 32 32">
<path fill="rgb(234, 54, 18)" d="M17.156 20.43v-10.159c0-0.873-0.74-1.581-1.638-1.581s-1.638 0.708-1.638 1.581v10.159c-1.060 0.563-1.815 1.675-1.815 2.952 0 1.85 1.543 3.348 3.443 3.348s3.45-1.501 3.45-3.348c0.002-1.277-0.743-2.386-1.803-2.952z"></path>
<path fill="rgb(102, 102, 102)" d="M21.008 18.849v-11.051c0-2.949-2.458-5.35-5.49-5.35s-5.487 2.4-5.487 5.35v11.049c-1.157 1.279-1.77 2.902-1.77 4.61 0 3.894 3.251 7.063 7.252 7.063s7.254-3.169 7.254-7.063c0-1.706-0.606-3.327-1.76-4.608zM15.507 28.62c-2.924 0-5.305-2.316-5.305-5.163 0-1.346 0.524-2.617 1.481-3.58 0.177-0.177 0.272-0.414 0.272-0.661v-11.418c0-1.902 1.583-3.45 3.541-3.45 1.954 0 3.538 1.548 3.538 3.45v11.418c0 0.247 0.109 0.484 0.285 0.658 0.957 0.967 1.493 2.242 1.493 3.582-0.001 2.848-2.377 5.164-5.304 5.164z"></path>
</svg>
