<?xml version="1.0" encoding="utf-8"?>
<!-- Generated by IcoMoon.io -->
<!DOCTYPE svg PUBLIC "-//W3C//DTD SVG 1.1//EN" "http://www.w3.org/Graphics/SVG/1.1/DTD/svg11.dtd">
<svg version="1.1" xmlns="http://www.w3.org/2000/svg" xmlns:xlink="http://www.w3.org/1999/xlink" width="32" height="32" viewBox="0 0 32 32">
<path fill="rgb(255, 156, 0)" d="M8.649 10.236c0.077 0.075 0.179 0.114 0.285 0.114 0.103 0 0.204-0.040 0.282-0.114 0.157-0.152 0.157-0.399 0-0.549l-2.264-2.196c-0.157-0.152-0.411-0.152-0.566 0-0.157 0.152-0.157 0.397 0 0.549l2.264 2.196z"></path>
<path fill="rgb(255, 156, 0)" d="M21.672 21.764c-0.157-0.152-0.411-0.152-0.568 0-0.155 0.152-0.155 0.397 0 0.549l2.266 2.196c0.077 0.075 0.179 0.114 0.282 0.114 0.105 0 0.207-0.040 0.285-0.114 0.157-0.152 0.157-0.397 0-0.549l-2.264-2.196z"></path>
<path fill="rgb(255, 156, 0)" d="M21.388 10.351c0.103 0 0.204-0.040 0.285-0.114l2.264-2.196c0.157-0.152 0.157-0.396 0-0.549s-0.408-0.152-0.566 0l-2.266 2.196c-0.155 0.149-0.155 0.396 0 0.549 0.079 0.075 0.181 0.114 0.284 0.114z"></path>
<path fill="rgb(255, 156, 0)" d="M8.649 21.764l-2.264 2.196c-0.157 0.152-0.157 0.396 0 0.549 0.077 0.075 0.179 0.114 0.282 0.114s0.204-0.040 0.285-0.114l2.264-2.196c0.157-0.152 0.157-0.396 0-0.549s-0.409-0.152-0.566 0z"></path>
<path fill="rgb(255, 156, 0)" d="M27.172 16h-3.204c-0.222 0-0.402 0.174-0.402 0.389s0.179 0.386 0.402 0.386h3.204c0.22 0 0.399-0.172 0.399-0.386s-0.18-0.389-0.399-0.389z"></path>
<path fill="rgb(255, 156, 0)" d="M6.752 16.389c0-0.214-0.177-0.389-0.399-0.389h-3.204c-0.222 0-0.399 0.174-0.399 0.389s0.177 0.386 0.399 0.386h3.204c0.222 0 0.399-0.172 0.399-0.386z"></path>
<path fill="rgb(255, 156, 0)" d="M14.759 24.152c-0.222 0-0.399 0.172-0.399 0.386v3.106c0 0.214 0.177 0.389 0.399 0.389s0.402-0.174 0.402-0.389v-3.106c0-0.215-0.18-0.386-0.402-0.386z"></path>
<path fill="rgb(255, 156, 0)" d="M14.759 7.848c0.222 0 0.402-0.172 0.402-0.386v-3.106c0-0.214-0.18-0.389-0.402-0.389s-0.399 0.174-0.399 0.389v3.106c0 0.215 0.177 0.386 0.399 0.386z"></path>
<path fill="rgb(255, 156, 0)" d="M15.026 9.79c-3.53 0-6.404 2.785-6.404 6.21s2.875 6.21 6.404 6.21c3.533 0 6.407-2.785 6.407-6.21s-2.876-6.21-6.407-6.21z"></path>
</svg>
