<?xml version="1.0" encoding="utf-8"?>
<!-- Generated by IcoMoon.io -->
<!DOCTYPE svg PUBLIC "-//W3C//DTD SVG 1.1//EN" "http://www.w3.org/Graphics/SVG/1.1/DTD/svg11.dtd">
<svg version="1.1" xmlns="http://www.w3.org/2000/svg" xmlns:xlink="http://www.w3.org/1999/xlink" width="32" height="32" viewBox="0 0 32 32">
<path fill="rgb(73, 140, 232)" d="M22.775 26.163c0 0.801-0.65 1.451-1.451 1.451s-1.451-0.65-1.451-1.451c0-0.801 0.65-1.451 1.451-1.451s1.451 0.65 1.451 1.451z"></path>
<path fill="rgb(73, 140, 232)" d="M17.934 26.163c0 0.801-0.65 1.451-1.451 1.451s-1.451-0.65-1.451-1.451c0-0.801 0.65-1.451 1.451-1.451s1.451 0.65 1.451 1.451z"></path>
<path fill="rgb(73, 140, 232)" d="M13.094 26.163c0 0.801-0.65 1.451-1.451 1.451s-1.451-0.65-1.451-1.451c0-0.801 0.65-1.451 1.451-1.451s1.451 0.65 1.451 1.451z"></path>
<path fill="rgb(73, 140, 232)" d="M23.52 9.592c-0.713-2.481-3.047-4.238-5.711-4.238-2.785 0-5.148 1.897-5.759 4.509-0.586-0.187-1.187-0.282-1.797-0.282-3.395 0-5.933 3.42-5.933 6.477s2.538 6.477 5.933 6.477h12.951c3.395 0 5.936-3.42 5.936-6.477 0-2.961-2.384-6.261-5.62-6.466z"></path>
</svg>
