<?xml version="1.0" encoding="utf-8"?>
<!-- Generated by IcoMoon.io -->
<!DOCTYPE svg PUBLIC "-//W3C//DTD SVG 1.1//EN" "http://www.w3.org/Graphics/SVG/1.1/DTD/svg11.dtd">
<svg version="1.1" xmlns="http://www.w3.org/2000/svg" xmlns:xlink="http://www.w3.org/1999/xlink" width="32" height="32" viewBox="0 0 32 32">
<path fill="rgb(255, 156, 0)" d="M9.225 16h4.839l-2.905 4.838h2.905l-5.806 7.744 1.934-5.806h-2.904z"></path>
<path fill="rgb(73, 140, 232)" d="M21.921 20.827c-0.484 0-0.872 0.222-0.872 0.497l-1.194 4.836c0 0.274 0.391 0.496 0.872 0.496 0.484 0 0.873-0.222 0.873-0.496l1.194-4.836c0-0.275-0.392-0.497-0.873-0.497z"></path>
<path fill="rgb(73, 140, 232)" d="M17.083 20.827c-0.484 0-0.872 0.222-0.872 0.497l-1.194 4.836c0 0.274 0.391 0.496 0.872 0.496s0.873-0.222 0.873-0.496l1.191-4.836c0-0.275-0.389-0.497-0.87-0.497z"></path>
<path fill="rgb(73, 140, 232)" d="M22.553 6.688c-0.713-2.481-3.047-4.238-5.711-4.238-2.785 0-5.151 1.897-5.759 4.51-0.586-0.187-1.187-0.282-1.797-0.282-3.395 0-5.933 3.42-5.933 6.477 0 2.396 1.56 5.004 3.87 6.026l1.037-4.148h7.743l-3.066 4.599h9.301c3.395 0 5.936-3.42 5.936-6.477 0-2.962-2.384-6.262-5.62-6.467z"></path>
</svg>
