<?xml version="1.0" encoding="utf-8"?>
<!-- Generated by IcoMoon.io -->
<!DOCTYPE svg PUBLIC "-//W3C//DTD SVG 1.1//EN" "http://www.w3.org/Graphics/SVG/1.1/DTD/svg11.dtd">
<svg version="1.1" xmlns="http://www.w3.org/2000/svg" xmlns:xlink="http://www.w3.org/1999/xlink" width="32" height="32" viewBox="0 0 32 32">
<path fill="rgb(184, 214, 255)" d="M14.134 19.213c0.551 0 1.097 0.109 1.618 0.326 0.127 0.055 0.274 0.047 0.399-0.016 0.12-0.065 0.202-0.179 0.217-0.307 0.222-1.837 1.892-3.221 3.892-3.221 1.867 0 3.49 1.22 3.859 2.902 0.043 0.192 0.222 0.324 0.441 0.321 0.032 0 0.062-0.005 0.075-0.008 2.134 0 3.936 1.702 3.936 3.72 0 2.014-1.802 3.717-3.936 3.717h-10.5c-2.134 0-3.936-1.702-3.936-3.717s1.803-3.718 3.936-3.718z"></path>
<path fill="rgb(255, 156, 0)" d="M15.094 18.281c-0.473-0.202-0.975-0.347-1.514-0.347-2.099 0-3.852 1.653-4.263 3.849-0.162 0.010-0.321 0.022-0.486 0.022-2.082 0-3.974-0.772-5.412-2.036 4.971-0.826 8.763-5.066 8.763-10.186 0-1.142-0.196-2.237-0.543-3.264 3.109 1.125 5.33 4.052 5.33 7.494 0 0.459-0.045 0.905-0.122 1.339-0.945 0.762-1.588 1.864-1.753 3.128z"></path>
</svg>
