<?xml version="1.0" encoding="utf-8"?>
<!-- Generated by IcoMoon.io -->
<!DOCTYPE svg PUBLIC "-//W3C//DTD SVG 1.1//EN" "http://www.w3.org/Graphics/SVG/1.1/DTD/svg11.dtd">
<svg version="1.1" xmlns="http://www.w3.org/2000/svg" xmlns:xlink="http://www.w3.org/1999/xlink" width="32" height="32" viewBox="0 0 32 32">
<path fill="rgb(255, 156, 0)" d="M20.042 8.785c-2.092 0-3.969 1.272-4.729 3.128 2.166 0.381 3.963 1.932 4.569 4.011 1.339 0.073 2.558 0.638 3.52 1.491 1.101-0.938 1.737-2.271 1.737-3.699 0-2.72-2.288-4.93-5.098-4.93z"></path>
<path fill="rgb(255, 156, 0)" d="M27.449 18.937c-0.207-0.202-0.541-0.202-0.748 0-0.207 0.199-0.207 0.524 0 0.723l1.498 1.451c0.103 0.1 0.237 0.15 0.374 0.15 0.134 0 0.269-0.050 0.374-0.15 0.207-0.202 0.207-0.527 0-0.726l-1.497-1.448z"></path>
<path fill="rgb(255, 156, 0)" d="M28.338 7.354c0.207-0.199 0.207-0.524 0-0.723s-0.544-0.199-0.75 0l-1.498 1.449c-0.207 0.199-0.207 0.524 0 0.726 0.105 0.1 0.239 0.149 0.376 0.149 0.134 0 0.269-0.050 0.374-0.149l1.498-1.452z"></path>
<path fill="rgb(255, 156, 0)" d="M12.612 6.631c-0.207-0.199-0.544-0.199-0.75 0-0.204 0.199-0.204 0.524 0 0.723l1.498 1.451c0.105 0.1 0.239 0.149 0.374 0.149 0.137 0 0.272-0.050 0.376-0.149 0.207-0.202 0.207-0.527 0-0.726l-1.498-1.448z"></path>
<path fill="rgb(255, 156, 0)" d="M30.954 14.165h-2.117c-0.291 0-0.528 0.229-0.528 0.511 0 0.285 0.237 0.514 0.528 0.514h2.117c0.294 0 0.531-0.229 0.531-0.514 0-0.282-0.237-0.511-0.531-0.511z"></path>
<path fill="rgb(255, 156, 0)" d="M19.835 6.482c0.294 0 0.531-0.229 0.531-0.514v-2.049c0-0.282-0.237-0.511-0.531-0.511-0.291 0-0.528 0.229-0.528 0.511v2.049c0 0.285 0.237 0.514 0.528 0.514z"></path>
<path fill="rgb(125, 177, 248)" d="M5.62 16.882c0.718 0 1.426 0.152 2.107 0.449 0.167 0.073 0.359 0.062 0.519-0.025 0.157-0.087 0.264-0.242 0.285-0.416 0.286-2.511 2.465-4.403 5.069-4.403 2.433 0 4.547 1.668 5.026 3.966 0.055 0.261 0.289 0.441 0.576 0.441 0.043-0.003 0.082-0.008 0.097-0.013 2.78 0 5.128 2.329 5.128 5.080 0 2.755-2.348 5.083-5.128 5.083h-13.678c-2.782 0-5.131-2.329-5.131-5.083 0-2.752 2.349-5.080 5.131-5.080z"></path>
</svg>
