<?xml version="1.0" encoding="utf-8"?>
<!-- Generated by IcoMoon.io -->
<!DOCTYPE svg PUBLIC "-//W3C//DTD SVG 1.1//EN" "http://www.w3.org/Graphics/SVG/1.1/DTD/svg11.dtd">
<svg version="1.1" xmlns="http://www.w3.org/2000/svg" xmlns:xlink="http://www.w3.org/1999/xlink" width="32" height="32" viewBox="0 0 32 32">
<path fill="rgb(184, 214, 255)" d="M21.828 3.383c1.758 0 3.283 1.204 3.63 2.865 0.055 0.259 0.349 0.432 0.644 0.432 2.044 0 3.705 1.603 3.705 3.572 0 1.645-1.199 3.054-2.837 3.438-0.945-2.064-3.004-3.572-5.378-3.705-0.497-1.701-1.745-3.061-3.343-3.799 0.368-1.619 1.834-2.803 3.579-2.803z"></path>
<path fill="rgb(73, 140, 232)" d="M20.289 21.24h-6.789l3.493-5.24h-7.743l-1.309 5.24h-1.329c-2.78 0-5.131-2.329-5.131-5.083s2.351-5.080 5.131-5.080c0.718 0 1.426 0.15 2.107 0.446 0.167 0.073 0.359 0.065 0.519-0.022 0.157-0.087 0.264-0.242 0.285-0.419 0.286-2.508 2.465-4.403 5.069-4.403 2.433 0 4.547 1.668 5.026 3.966 0.055 0.262 0.289 0.441 0.576 0.441 0.043-0.003 0.082-0.005 0.097-0.010 2.78 0 5.128 2.326 5.128 5.080-0.001 2.755-2.35 5.083-5.13 5.083z"></path>
<path fill="rgb(255, 156, 0)" d="M10.217 16.967h4.839l-2.902 4.839h2.902l-5.806 7.743 1.935-5.806h-2.902z"></path>
</svg>
