<?xml version="1.0" encoding="utf-8"?>
<!-- Generated by IcoMoon.io -->
<!DOCTYPE svg PUBLIC "-//W3C//DTD SVG 1.1//EN" "http://www.w3.org/Graphics/SVG/1.1/DTD/svg11.dtd">
<svg version="1.1" xmlns="http://www.w3.org/2000/svg" xmlns:xlink="http://www.w3.org/1999/xlink" width="32" height="32" viewBox="0 0 32 32">
<path fill="rgb(73, 140, 232)" d="M24.646 25.438c-0.13-0.232-0.416-0.312-0.641-0.177l-1.712 1.022v-2.057c0-0.267-0.217-0.484-0.486-0.484-0.267 0-0.484 0.217-0.484 0.484v2.057l-1.713-1.022c-0.225-0.134-0.511-0.055-0.641 0.177s-0.052 0.526 0.172 0.66l1.731 1.032-1.731 1.032c-0.225 0.134-0.302 0.432-0.172 0.663 0.13 0.229 0.416 0.309 0.641 0.177l1.713-1.025v2.057c0 0.267 0.217 0.484 0.484 0.484 0.269 0 0.486-0.217 0.486-0.484v-2.057l1.712 1.025c0.225 0.133 0.511 0.052 0.641-0.177 0.13-0.232 0.052-0.528-0.172-0.663l-1.731-1.031 1.731-1.032c0.225-0.135 0.301-0.43 0.172-0.661z"></path>
<path fill="rgb(73, 140, 232)" d="M16.902 25.438c-0.13-0.232-0.416-0.312-0.641-0.177l-1.712 1.022v-2.057c0-0.267-0.217-0.484-0.484-0.484-0.269 0-0.486 0.217-0.486 0.484v2.057l-1.713-1.022c-0.225-0.134-0.511-0.055-0.641 0.177s-0.052 0.526 0.172 0.66l1.731 1.032-1.731 1.032c-0.225 0.134-0.302 0.432-0.172 0.663 0.13 0.229 0.416 0.309 0.641 0.177l1.713-1.025v2.057c0 0.267 0.217 0.484 0.486 0.484 0.267 0 0.484-0.217 0.484-0.484v-2.057l1.712 1.025c0.225 0.133 0.511 0.052 0.641-0.177 0.13-0.232 0.052-0.528-0.172-0.663l-1.73-1.031 1.731-1.032c0.224-0.135 0.301-0.43 0.171-0.661z"></path>
<path fill="rgb(73, 140, 232)" d="M25.104 13.010c-0.017 0.005-0.057 0.010-0.097 0.013-0.286 0-0.521-0.179-0.576-0.441-0.478-2.299-2.593-3.966-5.026-3.966-2.606 0-4.781 1.895-5.071 4.403-0.020 0.174-0.125 0.332-0.282 0.419-0.162 0.087-0.351 0.095-0.519 0.022-0.68-0.296-1.391-0.449-2.109-0.449-2.78 0-5.128 2.329-5.128 5.083s2.348 5.080 5.128 5.080h13.679c2.78 0 5.128-2.326 5.128-5.080 0.001-2.756-2.347-5.083-5.128-5.083z"></path>
<path fill="rgb(255, 156, 0)" d="M2.451 15.899c0.845 0.74 1.86 1.286 2.965 1.633-0.020-0.19-0.062-0.372-0.062-0.563 0-0.8 0.177-1.56 0.494-2.253-1.039 0.573-2.18 0.981-3.396 1.184z"></path>
<path fill="rgb(255, 156, 0)" d="M10.672 2.45c0.347 1.027 0.541 2.122 0.541 3.261 0 2.182-0.691 4.199-1.865 5.863 0.713-0.259 1.484-0.414 2.296-0.414 0.648 0 1.264 0.109 1.85 0.285 0.451-1.244 1.264-2.311 2.336-3.047-0.552-2.752-2.529-4.998-5.157-5.948z"></path>
</svg>
