<?xml version="1.0" encoding="utf-8"?>
<!-- Generated by IcoMoon.io -->
<!DOCTYPE svg PUBLIC "-//W3C//DTD SVG 1.1//EN" "http://www.w3.org/Graphics/SVG/1.1/DTD/svg11.dtd">
<svg version="1.1" xmlns="http://www.w3.org/2000/svg" xmlns:xlink="http://www.w3.org/1999/xlink" width="32" height="32" viewBox="0 0 32 32">
<path fill="rgb(73, 140, 232)" d="M20.953 23.729c-0.481 0-0.872 0.222-0.872 0.498l-1.191 4.834c0 0.274 0.389 0.498 0.87 0.498 0.484 0 0.872-0.225 0.872-0.498l1.194-4.834c0-0.277-0.392-0.498-0.873-0.498z"></path>
<path fill="rgb(73, 140, 232)" d="M16.114 23.729c-0.484 0-0.872 0.222-0.872 0.498l-1.194 4.834c0 0.274 0.391 0.498 0.873 0.498 0.484 0 0.872-0.225 0.872-0.498l1.194-4.834c-0.001-0.277-0.392-0.498-0.873-0.498z"></path>
<path fill="rgb(73, 140, 232)" d="M25.104 13.012c-0.017 0.005-0.057 0.008-0.098 0.010-0.286 0.003-0.521-0.18-0.576-0.441-0.479-2.299-2.593-3.966-5.026-3.966-2.606 0-4.781 1.895-5.071 4.405-0.020 0.174-0.125 0.329-0.282 0.416-0.162 0.087-0.351 0.095-0.519 0.022-0.68-0.297-1.391-0.446-2.109-0.446-2.78 0-5.128 2.326-5.128 5.080s2.348 5.083 5.128 5.083h13.679c2.78 0 5.128-2.329 5.128-5.083s-2.347-5.079-5.127-5.079z"></path>
<path fill="rgb(255, 156, 0)" d="M2.45 15.898c0.845 0.74 1.86 1.286 2.965 1.633-0.020-0.187-0.063-0.371-0.063-0.563 0-0.8 0.177-1.56 0.494-2.253-1.037 0.573-2.179 0.982-3.395 1.184z"></path>
<path fill="rgb(255, 156, 0)" d="M10.669 2.449c0.349 1.027 0.543 2.122 0.543 3.264 0 2.179-0.69 4.196-1.865 5.861 0.713-0.259 1.484-0.414 2.296-0.414 0.648 0 1.264 0.112 1.85 0.285 0.451-1.244 1.264-2.311 2.336-3.047-0.552-2.753-2.528-4.998-5.159-5.949z"></path>
</svg>
