<?xml version="1.0" encoding="utf-8"?>
<!-- Generated by IcoMoon.io -->
<!DOCTYPE svg PUBLIC "-//W3C//DTD SVG 1.1//EN" "http://www.w3.org/Graphics/SVG/1.1/DTD/svg11.dtd">
<svg version="1.1" xmlns="http://www.w3.org/2000/svg" xmlns:xlink="http://www.w3.org/1999/xlink" width="32" height="32" viewBox="0 0 32 32">
<path fill="rgb(73, 140, 232)" d="M18.891 23.502c-0.127-0.232-0.407-0.312-0.623-0.177l-1.668 1.022v-2.057c0-0.267-0.212-0.484-0.471-0.484s-0.471 0.217-0.471 0.484v2.057l-1.668-1.022c-0.22-0.134-0.497-0.055-0.623 0.177-0.125 0.232-0.050 0.526 0.167 0.66l1.683 1.032-1.683 1.032c-0.217 0.134-0.291 0.432-0.167 0.663 0.127 0.229 0.404 0.309 0.623 0.177l1.668-1.025v2.058c0 0.267 0.212 0.484 0.471 0.484s0.471-0.217 0.471-0.484v-2.057l1.668 1.025c0.217 0.132 0.497 0.052 0.623-0.177 0.125-0.232 0.049-0.528-0.166-0.663l-1.685-1.032 1.685-1.032c0.216-0.135 0.29-0.43 0.166-0.661z"></path>
<path fill="rgb(73, 140, 232)" d="M11.147 17.693c-0.127-0.229-0.407-0.309-0.623-0.177l-1.668 1.025v-2.057c0-0.267-0.212-0.484-0.471-0.484s-0.471 0.217-0.471 0.484v2.057l-1.668-1.025c-0.22-0.133-0.497-0.052-0.623 0.177-0.125 0.232-0.050 0.528 0.167 0.663l1.685 1.032-1.685 1.032c-0.217 0.134-0.291 0.429-0.167 0.661 0.127 0.232 0.404 0.312 0.623 0.177l1.668-1.022v2.057c0 0.267 0.212 0.484 0.471 0.484s0.471-0.217 0.471-0.484v-2.057l1.668 1.022c0.217 0.134 0.497 0.055 0.623-0.177 0.125-0.232 0.050-0.526-0.166-0.661l-1.685-1.032 1.685-1.032c0.217-0.134 0.291-0.431 0.166-0.663z"></path>
<path fill="rgb(73, 140, 232)" d="M18.828 15.038c2.134 0 3.936-1.705 3.936-3.72 0-2.017-1.802-3.72-3.936-3.72-0.013 0.005-0.045 0.008-0.075 0.008-0.222 0.003-0.402-0.13-0.441-0.321-0.369-1.683-1.992-2.902-3.859-2.902-2 0-3.672 1.384-3.892 3.221-0.016 0.13-0.098 0.242-0.22 0.307-0.122 0.062-0.269 0.070-0.397 0.015-0.524-0.217-1.067-0.326-1.618-0.326-2.134 0-3.936 1.702-3.936 3.72 0 2.014 1.802 3.72 3.936 3.72h10.501z"></path>
<path fill="rgb(73, 140, 232)" d="M26.3 13.103l-0.691-0.558c-2.837 8.379-13.25 6.976-13.25 6.976l-0.045 1.555c0 0 9.997 0.324 13.37-6.43z"></path>
<path fill="rgb(73, 140, 232)" d="M26.643 13.971c0.561 6.79-6.326 9.050-6.326 9.050l0.533 1.588c0 0 7.735-3.762 6.619-11.099l-0.896-0.131z"></path>
</svg>
