<?xml version="1.0" encoding="utf-8"?>
<!-- Generated by IcoMoon.io -->
<!DOCTYPE svg PUBLIC "-//W3C//DTD SVG 1.1//EN" "http://www.w3.org/Graphics/SVG/1.1/DTD/svg11.dtd">
<svg version="1.1" xmlns="http://www.w3.org/2000/svg" xmlns:xlink="http://www.w3.org/1999/xlink" width="32" height="32" viewBox="0 0 32 32">
<path fill="rgb(73, 140, 232)" d="M19.408 21.994c-0.179-0.326-0.575-0.437-0.884-0.248l-2.367 1.437v-2.886c0-0.377-0.3-0.681-0.669-0.681s-0.667 0.305-0.667 0.681v2.886l-2.369-1.437c-0.309-0.188-0.703-0.077-0.881 0.248-0.179 0.323-0.072 0.739 0.236 0.927l2.388 1.45-2.388 1.451c-0.309 0.186-0.415 0.601-0.236 0.927 0.179 0.323 0.572 0.435 0.881 0.248l2.369-1.437v2.886c0 0.374 0.297 0.679 0.667 0.679s0.669-0.305 0.669-0.679v-2.886l2.367 1.437c0.309 0.186 0.705 0.075 0.884-0.248 0.179-0.326 0.072-0.742-0.236-0.927l-2.388-1.451 2.388-1.45c0.308-0.188 0.414-0.604 0.236-0.927z"></path>
<path fill="rgb(73, 140, 232)" d="M8.419 14.78c-0.179-0.326-0.575-0.437-0.884-0.248l-2.367 1.435v-2.886c0-0.374-0.299-0.679-0.669-0.679-0.367 0-0.667 0.305-0.667 0.679v2.886l-2.369-1.435c-0.309-0.188-0.703-0.077-0.881 0.248-0.178 0.323-0.072 0.739 0.236 0.927l2.388 1.449-2.388 1.449c-0.309 0.188-0.415 0.604-0.236 0.93 0.179 0.323 0.573 0.435 0.881 0.247l2.369-1.435v2.886c0 0.374 0.3 0.679 0.667 0.679 0.369 0 0.669-0.305 0.669-0.679v-2.886l2.367 1.435c0.309 0.188 0.705 0.077 0.884-0.247 0.179-0.326 0.072-0.742-0.236-0.93l-2.388-1.449 2.388-1.449c0.308-0.188 0.414-0.604 0.236-0.927z"></path>
<path fill="rgb(73, 140, 232)" d="M11.831 12.035c0.179 0.323 0.575 0.435 0.884 0.248l2.367-1.437v2.886c0 0.374 0.3 0.679 0.669 0.679s0.669-0.305 0.669-0.679v-2.886l2.367 1.437c0.309 0.186 0.705 0.075 0.884-0.248 0.179-0.326 0.072-0.742-0.236-0.93l-2.388-1.449 2.388-1.45c0.309-0.188 0.415-0.604 0.236-0.927-0.179-0.326-0.575-0.437-0.884-0.248l-2.367 1.435v-2.886c0-0.374-0.299-0.679-0.669-0.679s-0.669 0.305-0.669 0.679v2.886l-2.367-1.435c-0.309-0.188-0.705-0.077-0.884 0.248-0.176 0.323-0.072 0.739 0.236 0.927l2.391 1.45-2.391 1.449c-0.308 0.188-0.413 0.604-0.236 0.93z"></path>
<path fill="rgb(73, 140, 232)" d="M29.619 8.281c0.109-0.287 0.215-0.579 0.307-0.884l-0.983-0.783c-4.023 11.762-18.804 9.789-18.804 9.789l-0.063 2.186c0 0 14.672 0.471 19.207-9.515z"></path>
<path fill="rgb(73, 140, 232)" d="M30.18 8.961c0.734 8.878-8.272 11.834-8.272 11.834l0.698 2.077c0 0 10.114-4.92 8.656-14.513l-1.171-0.171z"></path>
</svg>
