<?xml version="1.0" encoding="utf-8"?>
<!-- Generated by IcoMoon.io -->
<!DOCTYPE svg PUBLIC "-//W3C//DTD SVG 1.1//EN" "http://www.w3.org/Graphics/SVG/1.1/DTD/svg11.dtd">
<svg version="1.1" xmlns="http://www.w3.org/2000/svg" xmlns:xlink="http://www.w3.org/1999/xlink" width="32" height="32" viewBox="0 0 32 32">
<path fill="#444444" d="M16.255 18.916c-5.2-4.077-12.837 0.581-12.837 0.581l0.222 2.376c0 0 6.684-4.896 11.885-0.82 5.27 4.131 13.056-0.454 13.056-0.454l-0.225-2.373c0-0.001-6.83 4.821-12.1 0.69z"></path>
<path fill="#444444" d="M15.524 13.032c5.27 4.134 13.056-0.451 13.056-0.451l-0.225-2.376c0 0-6.831 4.824-12.101 0.691-5.199-4.077-12.836 0.583-12.836 0.583l0.222 2.373c0 0 6.684-4.896 11.885-0.82z"></path>
<path fill="#444444" d="M16.255 14.907c-5.2-4.079-12.837 0.581-12.837 0.581l0.222 2.376c0 0 6.684-4.898 11.885-0.82 5.27 4.131 13.056-0.454 13.056-0.454l-0.225-2.376c0 0-6.83 4.824-12.1 0.693z"></path>
</svg>
