<?xml version="1.0" encoding="utf-8"?>
<!-- Generated by IcoMoon.io -->
<!DOCTYPE svg PUBLIC "-//W3C//DTD SVG 1.1//EN" "http://www.w3.org/Graphics/SVG/1.1/DTD/svg11.dtd">
<svg version="1.1" xmlns="http://www.w3.org/2000/svg" xmlns:xlink="http://www.w3.org/1999/xlink" width="32" height="32" viewBox="0 0 32 32">
<path fill="rgb(73, 140, 232)" d="M8.098 10.562c0.579 0.86 1.426 1.53 2.483 1.823l2.72 0.753c-1.177-1.311-1.701-3.194-1.22-5.046 0.484-1.853 1.85-3.213 3.506-3.74l-2.78-0.768c-0.226-0.062-0.454-0.090-0.68-0.115l-5.805-0.052h-2.905v28.068h2.905v-25.456z"></path>
<path fill="rgb(73, 140, 232)" d="M21.79 6.065l-2.78-0.768c-2.338-0.646-4.742 0.783-5.37 3.194-0.636 2.443 0.773 4.954 3.144 5.607l2.72 0.75c-1.177-1.309-1.701-3.191-1.22-5.044s1.849-3.213 3.506-3.74z"></path>
<path fill="rgb(73, 140, 232)" d="M25.313 7.050c-2.356-0.648-4.775 0.791-5.408 3.216-0.631 2.425 0.768 4.919 3.121 5.569 2.356 0.65 4.776-0.79 5.408-3.216s-0.766-4.919-3.121-5.569z"></path>
</svg>
