<?xml version="1.0" encoding="utf-8"?>
<!-- Generated by IcoMoon.io -->
<!DOCTYPE svg PUBLIC "-//W3C//DTD SVG 1.1//EN" "http://www.w3.org/Graphics/SVG/1.1/DTD/svg11.dtd">
<svg version="1.1" xmlns="http://www.w3.org/2000/svg" xmlns:xlink="http://www.w3.org/1999/xlink" width="32" height="32" viewBox="0 0 32 32">
<path fill="rgb(73, 140, 232)" d="M19.985 22.762c-0.481 0-0.872 0.222-0.872 0.498l-1.191 4.834c0 0.274 0.389 0.498 0.872 0.498 0.481 0 0.872-0.225 0.872-0.498l1.191-4.834c0-0.277-0.388-0.498-0.872-0.498z"></path>
<path fill="rgb(73, 140, 232)" d="M14.966 24.469c-0.13-0.232-0.416-0.312-0.641-0.177l-1.713 1.023v-2.057c0-0.267-0.217-0.484-0.484-0.484-0.269 0-0.484 0.217-0.484 0.484v2.057l-1.715-1.022c-0.225-0.134-0.511-0.055-0.641 0.177-0.127 0.232-0.052 0.526 0.172 0.66l1.731 1.032-1.731 1.032c-0.225 0.134-0.299 0.432-0.172 0.663 0.13 0.229 0.416 0.309 0.641 0.177l1.715-1.025v2.058c0 0.267 0.214 0.484 0.484 0.484 0.267 0 0.484-0.217 0.484-0.484v-2.057l1.712 1.025c0.225 0.133 0.511 0.052 0.641-0.177 0.13-0.232 0.052-0.528-0.172-0.663l-1.731-1.032 1.731-1.032c0.226-0.135 0.303-0.43 0.173-0.662z"></path>
<path fill="rgb(73, 140, 232)" d="M22.553 8.624c-0.713-2.481-3.047-4.238-5.711-4.238-2.785 0-5.148 1.897-5.759 4.509-0.586-0.187-1.187-0.282-1.797-0.282-3.395 0-5.933 3.42-5.933 6.477 0 3.059 2.538 6.477 5.933 6.477h12.951c3.395 0 5.936-3.418 5.936-6.477 0-2.962-2.384-6.262-5.62-6.466z"></path>
</svg>
