<?xml version="1.0" encoding="utf-8"?>
<!-- Generated by IcoMoon.io -->
<!DOCTYPE svg PUBLIC "-//W3C//DTD SVG 1.1//EN" "http://www.w3.org/Graphics/SVG/1.1/DTD/svg11.dtd">
<svg version="1.1" xmlns="http://www.w3.org/2000/svg" xmlns:xlink="http://www.w3.org/1999/xlink" width="32" height="32" viewBox="0 0 32 32">
<path fill="rgb(73, 140, 232)" d="M21.363 22.763c-0.481 0-0.87 0.222-0.87 0.497l-1.194 4.836c0 0.274 0.391 0.497 0.873 0.497 0.481 0 0.872-0.222 0.872-0.497l1.191-4.836c0-0.275-0.389-0.497-0.872-0.497z"></path>
<path fill="rgb(73, 140, 232)" d="M16.524 22.763c-0.481 0-0.873 0.222-0.873 0.497l-1.191 4.836c0 0.274 0.389 0.497 0.872 0.497 0.481 0 0.873-0.222 0.873-0.497l1.191-4.836c0.001-0.275-0.388-0.497-0.872-0.497z"></path>
<path fill="rgb(73, 140, 232)" d="M11.685 22.763c-0.481 0-0.873 0.222-0.873 0.497l-1.191 4.836c0 0.274 0.389 0.497 0.872 0.497 0.481 0 0.87-0.222 0.87-0.497l1.194-4.836c0-0.275-0.391-0.497-0.872-0.497z"></path>
<path fill="rgb(73, 140, 232)" d="M22.963 8.625c-0.713-2.481-3.047-4.238-5.711-4.238-2.785 0-5.148 1.897-5.759 4.509-0.586-0.187-1.187-0.282-1.797-0.282-3.395 0-5.933 3.42-5.933 6.477s2.538 6.477 5.933 6.477h12.951c3.395 0 5.936-3.42 5.936-6.477 0-2.962-2.383-6.262-5.62-6.466z"></path>
</svg>
