<?xml version="1.0" encoding="utf-8"?>
<!-- Generated by IcoMoon.io -->
<!DOCTYPE svg PUBLIC "-//W3C//DTD SVG 1.1//EN" "http://www.w3.org/Graphics/SVG/1.1/DTD/svg11.dtd">
<svg version="1.1" xmlns="http://www.w3.org/2000/svg" xmlns:xlink="http://www.w3.org/1999/xlink" width="32" height="32" viewBox="0 0 32 32">
<path fill="rgb(73, 140, 232)" d="M13.714 15.273c0.212-0.364 0.087-0.828-0.277-1.038l-2.812-1.623 2.812-1.623c0.364-0.212 0.489-0.676 0.277-1.040-0.209-0.364-0.673-0.489-1.038-0.28l-2.787 1.608v-3.231c0-0.419-0.351-0.761-0.785-0.761s-0.788 0.342-0.788 0.761v3.231l-2.785-1.608c-0.364-0.209-0.83-0.085-1.040 0.28s-0.084 0.828 0.28 1.040l2.812 1.623-2.812 1.623c-0.364 0.209-0.489 0.673-0.28 1.038s0.676 0.489 1.040 0.28l2.785-1.608v3.231c0 0.419 0.354 0.761 0.788 0.761s0.785-0.342 0.785-0.761v-3.231l2.787 1.608c0.365 0.209 0.829 0.084 1.038-0.28z"></path>
<path fill="rgb(73, 140, 232)" d="M20.612 19.629c-0.212-0.364-0.676-0.489-1.040-0.277l-2.787 1.608v-3.231c0-0.421-0.351-0.761-0.785-0.761s-0.788 0.339-0.788 0.761v3.231l-2.785-1.608c-0.364-0.212-0.828-0.087-1.040 0.277-0.209 0.364-0.085 0.83 0.28 1.040l2.812 1.623-2.812 1.623c-0.364 0.209-0.489 0.676-0.28 1.040 0.212 0.361 0.676 0.486 1.040 0.277l2.785-1.608v3.231c0 0.421 0.354 0.761 0.788 0.761s0.785-0.339 0.785-0.761v-3.231l2.787 1.608c0.364 0.209 0.828 0.085 1.040-0.277 0.209-0.364 0.084-0.83-0.28-1.040l-2.812-1.623 2.812-1.623c0.365-0.209 0.49-0.676 0.28-1.040z"></path>
<path fill="rgb(73, 140, 232)" d="M27.228 14.237l-2.813-1.623 2.813-1.623c0.364-0.212 0.489-0.676 0.279-1.040-0.212-0.364-0.676-0.489-1.040-0.28l-2.785 1.608v-3.231c0-0.419-0.354-0.761-0.788-0.761s-0.785 0.342-0.785 0.761v3.231l-2.787-1.608c-0.364-0.209-0.828-0.085-1.040 0.28-0.209 0.364-0.085 0.828 0.279 1.040l2.812 1.623-2.812 1.623c-0.364 0.209-0.489 0.673-0.279 1.038 0.212 0.364 0.676 0.489 1.040 0.28l2.787-1.608v3.231c0 0.419 0.351 0.761 0.785 0.761s0.788-0.342 0.788-0.761v-3.231l2.785 1.608c0.364 0.209 0.828 0.085 1.040-0.28 0.21-0.365 0.085-0.829-0.279-1.038z"></path>
</svg>
