<?xml version="1.0" encoding="utf-8"?>
<!-- Generated by IcoMoon.io -->
<!DOCTYPE svg PUBLIC "-//W3C//DTD SVG 1.1//EN" "http://www.w3.org/Graphics/SVG/1.1/DTD/svg11.dtd">
<svg version="1.1" xmlns="http://www.w3.org/2000/svg" xmlns:xlink="http://www.w3.org/1999/xlink" width="32" height="32" viewBox="0 0 32 32">
<path fill="rgb(73, 140, 232)" d="M21.92 23.729c-0.481 0-0.87 0.222-0.87 0.498l-1.194 4.834c0 0.274 0.391 0.497 0.873 0.497 0.481 0 0.872-0.222 0.872-0.497l1.191-4.834c0-0.276-0.389-0.498-0.872-0.498z"></path>
<path fill="rgb(73, 140, 232)" d="M17.081 23.729c-0.481 0-0.872 0.222-0.872 0.498l-1.191 4.834c0 0.274 0.389 0.497 0.873 0.497 0.481 0 0.872-0.222 0.872-0.497l1.191-4.834c-0.001-0.276-0.389-0.498-0.873-0.498z"></path>
<path fill="rgb(73, 140, 232)" d="M24.635 15.341c-0.013 0.005-0.043 0.008-0.075 0.010-0.22 0-0.399-0.133-0.441-0.324-0.369-1.68-1.992-2.902-3.859-2.902-2 0-3.67 1.386-3.892 3.224-0.015 0.127-0.098 0.239-0.217 0.304-0.125 0.065-0.272 0.070-0.399 0.017-0.521-0.217-1.067-0.329-1.618-0.329-2.134 0-3.936 1.705-3.936 3.72 0 2.017 1.802 3.72 3.936 3.72h10.5c2.134 0 3.936-1.702 3.936-3.72 0-2.014-1.803-3.72-3.936-3.72z"></path>
<path fill="rgb(255, 156, 0)" d="M15.094 14.411c-0.473-0.204-0.975-0.347-1.513-0.347-2.099 0-3.852 1.65-4.263 3.846-0.162 0.011-0.321 0.025-0.486 0.025-2.082 0-3.974-0.775-5.412-2.036 4.971-0.828 8.763-5.069 8.763-10.189 0-1.139-0.196-2.234-0.543-3.261 3.109 1.125 5.33 4.052 5.33 7.494 0 0.456-0.045 0.902-0.122 1.339-0.946 0.763-1.589 1.864-1.754 3.128z"></path>
</svg>
