<?xml version="1.0" encoding="utf-8"?>
<!-- Generated by IcoMoon.io -->
<!DOCTYPE svg PUBLIC "-//W3C//DTD SVG 1.1//EN" "http://www.w3.org/Graphics/SVG/1.1/DTD/svg11.dtd">
<svg version="1.1" xmlns="http://www.w3.org/2000/svg" xmlns:xlink="http://www.w3.org/1999/xlink" width="32" height="32" viewBox="0 0 32 32">
<path fill="rgb(73, 140, 232)" d="M22.89 23.728c-0.484 0-0.873 0.225-0.873 0.498l-1.194 4.834c0 0.277 0.391 0.498 0.872 0.498 0.484 0 0.873-0.222 0.873-0.498l1.191-4.834c0-0.274-0.388-0.498-0.869-0.498z"></path>
<path fill="rgb(73, 140, 232)" d="M17.869 25.436c-0.13-0.232-0.414-0.309-0.638-0.177l-1.715 1.025v-2.057c0-0.267-0.217-0.484-0.484-0.484s-0.484 0.217-0.484 0.484v2.057l-1.715-1.025c-0.222-0.133-0.508-0.055-0.638 0.177s-0.052 0.528 0.172 0.661l1.731 1.035-1.731 1.032c-0.225 0.134-0.302 0.429-0.172 0.661s0.416 0.312 0.638 0.177l1.715-1.022v2.054c0 0.269 0.217 0.484 0.484 0.484s0.484-0.214 0.484-0.484v-2.054l1.715 1.022c0.225 0.134 0.508 0.055 0.638-0.177s0.052-0.527-0.169-0.661l-1.731-1.032 1.731-1.035c0.222-0.133 0.299-0.429 0.169-0.661z"></path>
<path fill="rgb(73, 140, 232)" d="M24.635 15.342c-0.013 0.003-0.043 0.008-0.075 0.008-0.22 0.003-0.399-0.13-0.441-0.321-0.369-1.683-1.992-2.902-3.859-2.902-2 0-3.67 1.384-3.892 3.221-0.015 0.127-0.098 0.242-0.217 0.307-0.125 0.062-0.272 0.070-0.399 0.015-0.521-0.217-1.067-0.326-1.618-0.326-2.134 0-3.936 1.702-3.936 3.72 0 2.014 1.802 3.717 3.936 3.717h10.5c2.134 0 3.936-1.702 3.936-3.717 0-2.018-1.803-3.72-3.936-3.72z"></path>
<path fill="rgb(255, 156, 0)" d="M15.094 14.41c-0.473-0.202-0.975-0.347-1.514-0.347-2.099 0-3.852 1.653-4.263 3.849-0.162 0.010-0.321 0.022-0.486 0.022-2.082 0-3.974-0.773-5.412-2.036 4.971-0.826 8.763-5.066 8.763-10.187 0-1.142-0.196-2.236-0.543-3.264 3.109 1.125 5.33 4.052 5.33 7.494 0 0.459-0.045 0.905-0.122 1.339-0.945 0.763-1.588 1.865-1.753 3.129z"></path>
</svg>
