<?xml version="1.0" encoding="utf-8"?>
<!-- Generated by IcoMoon.io -->
<!DOCTYPE svg PUBLIC "-//W3C//DTD SVG 1.1//EN" "http://www.w3.org/Graphics/SVG/1.1/DTD/svg11.dtd">
<svg version="1.1" xmlns="http://www.w3.org/2000/svg" xmlns:xlink="http://www.w3.org/1999/xlink" width="32" height="32" viewBox="0 0 32 32">
<path fill="#444444" d="M8.097 10.562c0.579 0.86 1.429 1.53 2.486 1.823l2.72 0.753c-1.18-1.311-1.702-3.194-1.22-5.046 0.481-1.853 1.848-3.211 3.503-3.74l-2.777-0.768c-0.226-0.063-0.453-0.091-0.68-0.113l-5.808-0.055h-2.902v28.068h2.902v-25.455z"></path>
<path fill="#444444" d="M21.79 6.065l-2.778-0.768c-2.341-0.646-4.745 0.785-5.37 3.194-0.636 2.443 0.77 4.954 3.141 5.607l2.723 0.75c-1.179-1.309-1.702-3.191-1.221-5.044 0.484-1.853 1.85-3.214 3.506-3.74z"></path>
<path fill="#444444" d="M25.312 7.052c-2.354-0.65-4.774 0.788-5.405 3.213s0.766 4.922 3.121 5.569c2.354 0.65 4.775-0.788 5.405-3.213 0.633-2.428-0.766-4.921-3.121-5.569z"></path>
</svg>
